<mxfile host="app.diagrams.net" agent="Mozilla/5.0 (Windows NT 10.0; Win64; x64) AppleWebKit/537.36 (KHTML, like Gecko) Chrome/126.0.0.0 Safari/537.36" version="28.2.2">
  <diagram name="Page-1" id="lceHAWw1U7daVYu1ocGO">
    <mxGraphModel dx="1455" dy="918" grid="1" gridSize="10" guides="1" tooltips="1" connect="1" arrows="1" fold="1" page="1" pageScale="1" pageWidth="850" pageHeight="1100" math="0" shadow="0">
      <root>
        <mxCell id="0" />
        <mxCell id="1" parent="0" />
        <mxCell id="Jq9CSyYzZnOSvL0sAlA5-1" value="Generate PDF Preapproved" style="swimlane;childLayout=stackLayout;resizeParent=1;resizeParentMax=0;horizontal=0;startSize=20;horizontalStack=0;html=1;" parent="1" vertex="1">
          <mxGeometry x="40" y="40" width="1290" height="670" as="geometry" />
        </mxCell>
        <mxCell id="Jq9CSyYzZnOSvL0sAlA5-2" value="Merchant Apps" style="swimlane;startSize=20;horizontal=0;html=1;" parent="Jq9CSyYzZnOSvL0sAlA5-1" vertex="1">
          <mxGeometry x="20" width="1270" height="120" as="geometry" />
        </mxCell>
        <mxCell id="Jq9CSyYzZnOSvL0sAlA5-13" style="edgeStyle=orthogonalEdgeStyle;rounded=0;orthogonalLoop=1;jettySize=auto;html=1;entryX=0;entryY=0.5;entryDx=0;entryDy=0;" parent="Jq9CSyYzZnOSvL0sAlA5-2" source="Jq9CSyYzZnOSvL0sAlA5-10" target="Jq9CSyYzZnOSvL0sAlA5-12" edge="1">
          <mxGeometry relative="1" as="geometry" />
        </mxCell>
        <mxCell id="Jq9CSyYzZnOSvL0sAlA5-10" value="mulai" style="ellipse;whiteSpace=wrap;html=1;aspect=fixed;" parent="Jq9CSyYzZnOSvL0sAlA5-2" vertex="1">
          <mxGeometry x="30" y="40" width="40" height="40" as="geometry" />
        </mxCell>
        <mxCell id="Jq9CSyYzZnOSvL0sAlA5-15" style="edgeStyle=orthogonalEdgeStyle;rounded=0;orthogonalLoop=1;jettySize=auto;html=1;" parent="Jq9CSyYzZnOSvL0sAlA5-2" source="Jq9CSyYzZnOSvL0sAlA5-12" target="Jq9CSyYzZnOSvL0sAlA5-14" edge="1">
          <mxGeometry relative="1" as="geometry" />
        </mxCell>
        <mxCell id="Jq9CSyYzZnOSvL0sAlA5-12" value="Setujui Ketentuan" style="rounded=0;whiteSpace=wrap;html=1;fillColor=#ffff88;strokeColor=#36393d;" parent="Jq9CSyYzZnOSvL0sAlA5-2" vertex="1">
          <mxGeometry x="90" y="25" width="120" height="70" as="geometry" />
        </mxCell>
        <mxCell id="Jq9CSyYzZnOSvL0sAlA5-14" value="Mengirimkan FDM ID, MID, dan Timestamp" style="rounded=0;whiteSpace=wrap;html=1;fillColor=#ffff88;strokeColor=#36393d;" parent="Jq9CSyYzZnOSvL0sAlA5-2" vertex="1">
          <mxGeometry x="230" y="25" width="120" height="70" as="geometry" />
        </mxCell>
        <mxCell id="Jq9CSyYzZnOSvL0sAlA5-3" value="Data Master" style="swimlane;startSize=20;horizontal=0;html=1;" parent="Jq9CSyYzZnOSvL0sAlA5-1" vertex="1">
          <mxGeometry x="20" y="120" width="1270" height="120" as="geometry" />
        </mxCell>
        <mxCell id="Jq9CSyYzZnOSvL0sAlA5-35" value="Get data master S&amp;amp;K" style="rounded=0;whiteSpace=wrap;html=1;" parent="Jq9CSyYzZnOSvL0sAlA5-3" vertex="1">
          <mxGeometry x="510" y="25" width="120" height="70" as="geometry" />
        </mxCell>
        <mxCell id="Jq9CSyYzZnOSvL0sAlA5-4" value="HCP Magenta" style="swimlane;startSize=20;horizontal=0;html=1;" parent="Jq9CSyYzZnOSvL0sAlA5-1" vertex="1">
          <mxGeometry x="20" y="240" width="1270" height="120" as="geometry" />
        </mxCell>
        <mxCell id="Jq9CSyYzZnOSvL0sAlA5-69" value="Mendapatkan file dan menyimpan file prestamp" style="rounded=0;whiteSpace=wrap;html=1;" parent="Jq9CSyYzZnOSvL0sAlA5-4" vertex="1">
          <mxGeometry x="790" y="25" width="120" height="70" as="geometry" />
        </mxCell>
        <mxCell id="Jq9CSyYzZnOSvL0sAlA5-72" value="" style="shape=note;whiteSpace=wrap;html=1;backgroundOutline=1;darkOpacity=0.05;" parent="Jq9CSyYzZnOSvL0sAlA5-4" vertex="1">
          <mxGeometry x="960" y="25" width="60" height="70" as="geometry" />
        </mxCell>
        <mxCell id="Jq9CSyYzZnOSvL0sAlA5-78" style="edgeStyle=orthogonalEdgeStyle;rounded=0;orthogonalLoop=1;jettySize=auto;html=1;entryX=0;entryY=0.5;entryDx=0;entryDy=0;entryPerimeter=0;dashed=1;" parent="Jq9CSyYzZnOSvL0sAlA5-4" source="Jq9CSyYzZnOSvL0sAlA5-69" target="Jq9CSyYzZnOSvL0sAlA5-72" edge="1">
          <mxGeometry relative="1" as="geometry" />
        </mxCell>
        <mxCell id="Jq9CSyYzZnOSvL0sAlA5-74" value="&lt;font style=&quot;font-size: 10px;&quot;&gt;FDM Merchant Baru_[FDMID]_[ddmmyy]_PRESTAMP.pdf&lt;/font&gt;" style="text;html=1;align=center;verticalAlign=middle;whiteSpace=wrap;rounded=0;" parent="Jq9CSyYzZnOSvL0sAlA5-4" vertex="1">
          <mxGeometry x="860" y="100" width="260" height="10" as="geometry" />
        </mxCell>
        <mxCell id="Jq9CSyYzZnOSvL0sAlA5-7" value="Magenta" style="swimlane;startSize=20;horizontal=0;html=1;" parent="Jq9CSyYzZnOSvL0sAlA5-1" vertex="1">
          <mxGeometry x="20" y="360" width="1270" height="130" as="geometry" />
        </mxCell>
        <mxCell id="Jq9CSyYzZnOSvL0sAlA5-32" style="edgeStyle=orthogonalEdgeStyle;rounded=0;orthogonalLoop=1;jettySize=auto;html=1;" parent="Jq9CSyYzZnOSvL0sAlA5-7" source="Jq9CSyYzZnOSvL0sAlA5-16" target="Jq9CSyYzZnOSvL0sAlA5-31" edge="1">
          <mxGeometry relative="1" as="geometry" />
        </mxCell>
        <mxCell id="Jq9CSyYzZnOSvL0sAlA5-16" value="Magenta inquiry Data FDMID" style="rounded=0;whiteSpace=wrap;html=1;fillColor=#ffff88;strokeColor=#36393d;" parent="Jq9CSyYzZnOSvL0sAlA5-7" vertex="1">
          <mxGeometry x="230" y="25" width="120" height="70" as="geometry" />
        </mxCell>
        <mxCell id="Jq9CSyYzZnOSvL0sAlA5-34" style="edgeStyle=orthogonalEdgeStyle;rounded=0;orthogonalLoop=1;jettySize=auto;html=1;entryX=0;entryY=0.5;entryDx=0;entryDy=0;" parent="Jq9CSyYzZnOSvL0sAlA5-7" source="Jq9CSyYzZnOSvL0sAlA5-31" target="Jq9CSyYzZnOSvL0sAlA5-33" edge="1">
          <mxGeometry relative="1" as="geometry" />
        </mxCell>
        <mxCell id="Jq9CSyYzZnOSvL0sAlA5-31" value="Hit service generate FDM PDF" style="rounded=0;whiteSpace=wrap;html=1;" parent="Jq9CSyYzZnOSvL0sAlA5-7" vertex="1">
          <mxGeometry x="370" y="25" width="120" height="70" as="geometry" />
        </mxCell>
        <mxCell id="Jq9CSyYzZnOSvL0sAlA5-33" value="Get S&amp;amp;K terupdate di data master" style="rounded=0;whiteSpace=wrap;html=1;" parent="Jq9CSyYzZnOSvL0sAlA5-7" vertex="1">
          <mxGeometry x="510" y="25" width="120" height="70" as="geometry" />
        </mxCell>
        <mxCell id="Jq9CSyYzZnOSvL0sAlA5-56" value="Request generate FDM PDF" style="rounded=0;whiteSpace=wrap;html=1;" parent="Jq9CSyYzZnOSvL0sAlA5-7" vertex="1">
          <mxGeometry x="650" y="25" width="120" height="70" as="geometry" />
        </mxCell>
        <mxCell id="Jq9CSyYzZnOSvL0sAlA5-80" style="edgeStyle=orthogonalEdgeStyle;rounded=0;orthogonalLoop=1;jettySize=auto;html=1;entryX=0;entryY=0.5;entryDx=0;entryDy=0;" parent="Jq9CSyYzZnOSvL0sAlA5-7" source="Jq9CSyYzZnOSvL0sAlA5-67" target="Jq9CSyYzZnOSvL0sAlA5-71" edge="1">
          <mxGeometry relative="1" as="geometry" />
        </mxCell>
        <mxCell id="Jq9CSyYzZnOSvL0sAlA5-67" value="Mendapatkan file PDF dari i-text, simpan di HCP" style="rounded=0;whiteSpace=wrap;html=1;" parent="Jq9CSyYzZnOSvL0sAlA5-7" vertex="1">
          <mxGeometry x="790" y="25" width="120" height="70" as="geometry" />
        </mxCell>
        <mxCell id="Jq9CSyYzZnOSvL0sAlA5-82" style="edgeStyle=orthogonalEdgeStyle;rounded=0;orthogonalLoop=1;jettySize=auto;html=1;" parent="Jq9CSyYzZnOSvL0sAlA5-7" source="Jq9CSyYzZnOSvL0sAlA5-71" target="Jq9CSyYzZnOSvL0sAlA5-81" edge="1">
          <mxGeometry relative="1" as="geometry" />
        </mxCell>
        <mxCell id="Jq9CSyYzZnOSvL0sAlA5-71" value="Menampilkan FDM PDF di tab dokumen tracking pengajuan &amp;amp; inquiry data merchant dengan flag &quot;FDM&quot;" style="rounded=0;whiteSpace=wrap;html=1;" parent="Jq9CSyYzZnOSvL0sAlA5-7" vertex="1">
          <mxGeometry x="930" y="25" width="120" height="70" as="geometry" />
        </mxCell>
        <mxCell id="Jq9CSyYzZnOSvL0sAlA5-84" style="edgeStyle=orthogonalEdgeStyle;rounded=0;orthogonalLoop=1;jettySize=auto;html=1;entryX=0;entryY=0.5;entryDx=0;entryDy=0;" parent="Jq9CSyYzZnOSvL0sAlA5-7" source="Jq9CSyYzZnOSvL0sAlA5-81" target="Jq9CSyYzZnOSvL0sAlA5-83" edge="1">
          <mxGeometry relative="1" as="geometry" />
        </mxCell>
        <mxCell id="Jq9CSyYzZnOSvL0sAlA5-81" value="POL/Magenta/FFL Magenta Stamping Docker" style="rounded=0;whiteSpace=wrap;html=1;" parent="Jq9CSyYzZnOSvL0sAlA5-7" vertex="1">
          <mxGeometry x="1070" y="25" width="120" height="70" as="geometry" />
        </mxCell>
        <mxCell id="Jq9CSyYzZnOSvL0sAlA5-83" value="selesai" style="ellipse;whiteSpace=wrap;html=1;aspect=fixed;fillColor=#ffcccc;strokeColor=#36393d;" parent="Jq9CSyYzZnOSvL0sAlA5-7" vertex="1">
          <mxGeometry x="1210" y="40" width="40" height="40" as="geometry" />
        </mxCell>
        <mxCell id="Jq9CSyYzZnOSvL0sAlA5-17" style="edgeStyle=orthogonalEdgeStyle;rounded=0;orthogonalLoop=1;jettySize=auto;html=1;entryX=0.5;entryY=0;entryDx=0;entryDy=0;exitX=0.5;exitY=1;exitDx=0;exitDy=0;" parent="Jq9CSyYzZnOSvL0sAlA5-1" source="Jq9CSyYzZnOSvL0sAlA5-14" target="Jq9CSyYzZnOSvL0sAlA5-16" edge="1">
          <mxGeometry relative="1" as="geometry">
            <Array as="points">
              <mxPoint x="310" y="360" />
              <mxPoint x="310" y="360" />
            </Array>
            <mxPoint x="170" y="390" as="targetPoint" />
          </mxGeometry>
        </mxCell>
        <mxCell id="Jq9CSyYzZnOSvL0sAlA5-36" style="edgeStyle=orthogonalEdgeStyle;rounded=0;orthogonalLoop=1;jettySize=auto;html=1;" parent="Jq9CSyYzZnOSvL0sAlA5-1" source="Jq9CSyYzZnOSvL0sAlA5-33" target="Jq9CSyYzZnOSvL0sAlA5-35" edge="1">
          <mxGeometry relative="1" as="geometry" />
        </mxCell>
        <mxCell id="Jq9CSyYzZnOSvL0sAlA5-57" style="edgeStyle=orthogonalEdgeStyle;rounded=0;orthogonalLoop=1;jettySize=auto;html=1;entryX=0.5;entryY=0;entryDx=0;entryDy=0;" parent="Jq9CSyYzZnOSvL0sAlA5-1" source="Jq9CSyYzZnOSvL0sAlA5-35" target="Jq9CSyYzZnOSvL0sAlA5-56" edge="1">
          <mxGeometry relative="1" as="geometry">
            <Array as="points">
              <mxPoint x="730" y="180" />
            </Array>
          </mxGeometry>
        </mxCell>
        <mxCell id="Jq9CSyYzZnOSvL0sAlA5-66" style="edgeStyle=orthogonalEdgeStyle;rounded=0;orthogonalLoop=1;jettySize=auto;html=1;entryX=0.5;entryY=0;entryDx=0;entryDy=0;" parent="Jq9CSyYzZnOSvL0sAlA5-1" source="Jq9CSyYzZnOSvL0sAlA5-56" target="RLUqPXqN4DEG-D3L9kRr-4" edge="1">
          <mxGeometry relative="1" as="geometry" />
        </mxCell>
        <mxCell id="Jq9CSyYzZnOSvL0sAlA5-68" style="edgeStyle=orthogonalEdgeStyle;rounded=0;orthogonalLoop=1;jettySize=auto;html=1;entryX=0.5;entryY=1;entryDx=0;entryDy=0;exitX=1;exitY=0.5;exitDx=0;exitDy=0;" parent="Jq9CSyYzZnOSvL0sAlA5-1" source="Jq9CSyYzZnOSvL0sAlA5-65" target="Jq9CSyYzZnOSvL0sAlA5-67" edge="1">
          <mxGeometry relative="1" as="geometry">
            <Array as="points">
              <mxPoint x="1010" y="535" />
              <mxPoint x="1010" y="480" />
              <mxPoint x="870" y="480" />
            </Array>
          </mxGeometry>
        </mxCell>
        <mxCell id="Jq9CSyYzZnOSvL0sAlA5-70" style="edgeStyle=orthogonalEdgeStyle;rounded=0;orthogonalLoop=1;jettySize=auto;html=1;entryX=0.5;entryY=1;entryDx=0;entryDy=0;" parent="Jq9CSyYzZnOSvL0sAlA5-1" source="Jq9CSyYzZnOSvL0sAlA5-67" target="Jq9CSyYzZnOSvL0sAlA5-69" edge="1">
          <mxGeometry relative="1" as="geometry" />
        </mxCell>
        <mxCell id="Jq9CSyYzZnOSvL0sAlA5-79" style="edgeStyle=orthogonalEdgeStyle;rounded=0;orthogonalLoop=1;jettySize=auto;html=1;entryX=0.5;entryY=0;entryDx=0;entryDy=0;dashed=1;" parent="Jq9CSyYzZnOSvL0sAlA5-1" source="Jq9CSyYzZnOSvL0sAlA5-72" target="Jq9CSyYzZnOSvL0sAlA5-71" edge="1">
          <mxGeometry relative="1" as="geometry" />
        </mxCell>
        <mxCell id="RLUqPXqN4DEG-D3L9kRr-9" style="edgeStyle=orthogonalEdgeStyle;rounded=0;orthogonalLoop=1;jettySize=auto;html=1;entryX=0.5;entryY=1;entryDx=0;entryDy=0;" parent="Jq9CSyYzZnOSvL0sAlA5-1" source="RLUqPXqN4DEG-D3L9kRr-7" target="Jq9CSyYzZnOSvL0sAlA5-67" edge="1">
          <mxGeometry relative="1" as="geometry">
            <Array as="points">
              <mxPoint x="1010" y="615" />
              <mxPoint x="1010" y="480" />
              <mxPoint x="870" y="480" />
            </Array>
          </mxGeometry>
        </mxCell>
        <mxCell id="Jq9CSyYzZnOSvL0sAlA5-8" value="i-text" style="swimlane;startSize=20;horizontal=0;html=1;" parent="Jq9CSyYzZnOSvL0sAlA5-1" vertex="1">
          <mxGeometry x="20" y="490" width="1270" height="180" as="geometry" />
        </mxCell>
        <mxCell id="Jq9CSyYzZnOSvL0sAlA5-65" value="Generate fdm pdf" style="rounded=0;whiteSpace=wrap;html=1;" parent="Jq9CSyYzZnOSvL0sAlA5-8" vertex="1">
          <mxGeometry x="820" y="10" width="120" height="70" as="geometry" />
        </mxCell>
        <mxCell id="RLUqPXqN4DEG-D3L9kRr-6" style="edgeStyle=orthogonalEdgeStyle;rounded=0;orthogonalLoop=1;jettySize=auto;html=1;entryX=0;entryY=0.5;entryDx=0;entryDy=0;" parent="Jq9CSyYzZnOSvL0sAlA5-8" source="RLUqPXqN4DEG-D3L9kRr-4" target="Jq9CSyYzZnOSvL0sAlA5-65" edge="1">
          <mxGeometry relative="1" as="geometry" />
        </mxCell>
        <mxCell id="RLUqPXqN4DEG-D3L9kRr-11" value="no" style="edgeLabel;html=1;align=center;verticalAlign=middle;resizable=0;points=[];" parent="RLUqPXqN4DEG-D3L9kRr-6" vertex="1" connectable="0">
          <mxGeometry x="0.5035" y="3" relative="1" as="geometry">
            <mxPoint x="-10" y="18" as="offset" />
          </mxGeometry>
        </mxCell>
        <mxCell id="RLUqPXqN4DEG-D3L9kRr-8" style="edgeStyle=orthogonalEdgeStyle;rounded=0;orthogonalLoop=1;jettySize=auto;html=1;entryX=0;entryY=0.5;entryDx=0;entryDy=0;" parent="Jq9CSyYzZnOSvL0sAlA5-8" source="RLUqPXqN4DEG-D3L9kRr-4" target="RLUqPXqN4DEG-D3L9kRr-7" edge="1">
          <mxGeometry relative="1" as="geometry" />
        </mxCell>
        <mxCell id="RLUqPXqN4DEG-D3L9kRr-10" value="yes" style="edgeLabel;html=1;align=center;verticalAlign=middle;resizable=0;points=[];" parent="RLUqPXqN4DEG-D3L9kRr-8" vertex="1" connectable="0">
          <mxGeometry x="0.4967" relative="1" as="geometry">
            <mxPoint x="-12" y="-15" as="offset" />
          </mxGeometry>
        </mxCell>
        <mxCell id="RLUqPXqN4DEG-D3L9kRr-4" value="" style="rhombus;whiteSpace=wrap;html=1;fillColor=#ffff88;strokeColor=#36393d;" parent="Jq9CSyYzZnOSvL0sAlA5-8" vertex="1">
          <mxGeometry x="675" y="55" width="70" height="70" as="geometry" />
        </mxCell>
        <mxCell id="RLUqPXqN4DEG-D3L9kRr-5" value="isPreapproved=1?" style="text;html=1;align=center;verticalAlign=middle;whiteSpace=wrap;rounded=0;" parent="Jq9CSyYzZnOSvL0sAlA5-8" vertex="1">
          <mxGeometry x="680" y="125" width="60" height="30" as="geometry" />
        </mxCell>
        <mxCell id="RLUqPXqN4DEG-D3L9kRr-7" value="Generate fdm pdf preapproved" style="rounded=0;whiteSpace=wrap;html=1;fillColor=#ffff88;strokeColor=#36393d;" parent="Jq9CSyYzZnOSvL0sAlA5-8" vertex="1">
          <mxGeometry x="820" y="90" width="120" height="70" as="geometry" />
        </mxCell>
        <mxCell id="g-JHbJqc6vK05-hs5_N7-2" value="" style="shape=image;verticalLabelPosition=bottom;labelBackgroundColor=default;verticalAlign=top;aspect=fixed;imageAspect=0;image=data:image/png,iVBORw0KGgoAAAANSUhEUgAABXgAAAIICAYAAADUjoZ4AAAAAXNSR0IArs4c6QAAIABJREFUeF7svQuQFdW1/78wNzGAlsgQH2B0RCO+cqmI8vfn4AuUMWCCcn+Al5cmo+IlgCKYK4/hjZgAooBcUYlGwCvwCz4CRkAwKFDeKKmi4guiZPT6TACxQCgrCfOv1bgPPT3nzOnTp9/92VVTM3PO7r3X/qzdfXZ/z+q1m4lIvVAgAAEIQAACEIAABCAAAQhAAAIQgAAEIAABCEAgcQSaIfAmzmcYDAEIQAACEIAABCAAAQhAAAIQgAAEIAABCEDAIoDAy0SAAAQgAAEIQAACEIAABCAAAQhAAAIQgAAEIJBQAg0E3vr6aLM1NGum5ojEwY6obUjofMJsCEAAAhCAAAQgAAEIQAACEIAABCAAAQhAIGACRkfVbhB488BWQAi8Ac9CmocABCAAAQhAAAIQgAAEIAABCEAAAhCAAAQ8EUDgLYINgdfTvOIgCEAAAhCAAAQgAAEIQAACEIAABCAAAQhAIAQCCLwIvCFMM7qAAAQgAAEIQAACEIAABCAAAQhAAAIQgAAEgiCAwIvAG8S8ok0IQAACEIAABCAAAQhAAAIQgAAEIAABCEAgBAIIvAi8IUwzuoAABCAAAQhAAAIQgAAEIAABCEAAAhCAAASCIIDAi8AbxLyiTQhAAAIQgAAEIAABCEAAAhCAAAQgAAEIQCAEAqkSeDdu3FgQWX19fcH3rrjiioLvsclaCLOQLiAAAQhAAAIQgAAEIAABCEAAAhCAAAQgAAFPBFIl8D722GNy+umny6FDhxr8qLhrf83+/xdffCE1NTUIvJ6mDwdBAAIQgAAEIAABCEAAAhCAAAQgAAEIQAACURJIncCr0bht27aVf/7zn/KPf/yjyd+ffvqp7NixQ26++WYE3ihnIX1DAAIQgAAEIAABCEAAAhCAAAQgAAEIQAACngikTuC98sormxR4jeirArAReIng9TR3OAgCEIAABCAAAQhAAAIQgAAEIAABCEAAAhCImEDqBF6N4G3Xrp0VvWvE3BkzZlgpGu64444GEb1E8EY8++geAhCAAAQgAAEIQAACEIAABCAAAQhAAAIQKItA6gTefBG8xQReInjLmkMcDAEIQAACEIAABCAAAQhAAAIQgAAEIAABCEREIHUCb74cvMUEXnLwRjT76BYCEIAABCAAAQhAAAIQgAAEIAABCEAAAhAoi0DqBF5nBK+mabj33nut1AwjR45ssPHaZ599Zm2yRgRvWXOIgyEAAQhAAAIQgAAEIAABCEAAAhCAAAQgAIGICKRO4CWCN6KZRLcQgAAEIAABCEAAAhCAAAQgAAEIQAACEIBA6ARSJ/AWy8FrNl7TiF6zyRoRvKHPOzqEAAQgAAEIQAACEIAABCAAAQhAAAIQgAAEfCCQOoE3XwTvSy+9JIcOHZKLL77YStVgRF4j8JKD14eZRBMQgAAEIAABCEAAAhCAAAQgAAEIQAACEIBA6ARSJ/Dmi+A1gq7+JoI39DlGhxCAAAQgAAEIQAACEIAABCAAAQhAAAIQgEBABFIn8GoEb7t27Swh1y7s2iN3ieANaDbRLAQgAAEIQAACEIAABCAAAQhAAAIQgAAEIBAqgdQJvB999JErgPX19Va9tm3bCjl4XSGjEgQgAAEIQAACEIAABCAAAQhAAAIQgAAEIBAzAqkSeDVK10v5xje+UfAwBWTEYC9tcwwEIAABCEAAAhCAAAQgAAEIQAACEIAABCAAgaAIpErgDQISAm8QVGkTAhCAAAQgAAEIQAACEIAABCAAAQhAAAIQ8IMAAm8Rigi8fkwz2oAABCAAAQhAAAIQgAAEIAABCEAAAhCAAASCIIDAi8AbxLyiTQhAAAIQgAAEIAABCEAAAhCAAAQgAAEIQCAEAgi8CLwhTDO6gAAEIAABCEAAAhCAAAQgAAEIQAACEIAABIIggMCLwBvEvKJNCEAAAhCAAAQgAAEIQAACEIAABCAAAQhAIAQCCLwIvCFMM7qAAAQgAAEIQAACEIAABCAAAQhAAAIQgAAEgiCAwIvAG8S8ok0IQAACEIAABCAAAQhAAAIQgAAEIAABCEAgBAIIvAi8IUwzuoAABCAAAQhAAAIQgAAEIAABCEAAAhCAAASCIIDAi8AbxLyiTQhAAAIQgAAEIAABCEAAAhCAAAQgAAEIQCAEAgi8CLwhTDO6gAAEIAABCEAAAhCAAAQgAAEIQAACEIAABIIggMCLwBvEvKJNCEAAAhCAAAQgAAEIQAACEIAABCAAAQhAIAQCCLwIvCFMM7qAAAQgAAEIQAACEIAABCAAAQhAAAIQgAAEgiCAwIvAG8S8ok0IQAACEIAABCAAAQhAAAIQgAAEIAABCEAgBAIIvAi8IUwzuoAABCAAAQhAAAIQgAAEIAABCEAAAhCAAASCIIDAi8AbxLyiTQhAAAIQgAAEIAABCEAAAhCAAAQgAAEIQCAEAgi8CLwhTDO6gAAEIAABCEAAAhCAAAQgAAEIQAACEIAABIIggMCLwBvEvKJNCEAAAhCAAAQgAAEIQAACEIAABCAAAQhAIAQCCLwIvCFMM7qAAAQgAAEIQAACEIAABCAAAQhAAAIQgAAEgiCAwIvAG8S8ok0IQAACEIAABCAAAQhAAAIQgAAEIAABCEAgBAIIvAi8IUwzuoAABCAAAQhAAAIQgAAEIAABCEAAAhCAAASCIIDAi8AbxLyiTQhAAAIQgAAEIAABCEAAAhCAAAQgAAEIQCAEAgi8CLwhTDO6gAAEIAABCEAAAhCAAAQgAAEIQAACEIAABIIggMCLwBvEvKJNCEAAAhCAAAQgAAEIQAACEIAABCAAAQhAIAQCCLwIvCFMM7qAAAQgAAEIQAACEIAABCAAAQhAAAIQgAAEgiCAwIvAG8S8ok0IQAACEIAABCAAAQhAAAIQgAAEIAABCEAgBAIIvAi8IUwzuihGYO/evTJ79mzZsGGDbNmypVh13o8RgUsuuUS6du0qo0aNklatWsXIMkyBAAQgAAEIQAACEIAABCAAAQhAIAsEEHgReLMwz2M9xnXr1sltt90mO3fujLWdGNc0gfbt28tDDz0kV199NaggAAEIQAACEIAABCAAAQhAAAIQgEBoBBB4EXhDm2x01JiAirvdu3cHTYoIrF27FpE3Rf5kKBCAAAQgAAEIQAACEIAABCAAgbgTQOBF4I37HE2tfZqWoVOnTrnI3datW1sRoN26dRP9mxJ/Anv27JH169dbEdj6txaN5N26dSvpGuLvPiyEAAQgAAEIQAACEIAABCAAAQikggACLwJvKiZyEgdRW1sr06ZNs0xXQVdFwcrKyiQOJfM219XVWWK9EXnHjx8vU6dOzTwXAEAAAhCAAAQgAAEIQAACEIAABCAQPAEEXgTe4GcZPeQlUFVVldtQbfny5dKnTx9IJZjAihUrpG/fvtYIdOO1zZs3J3g0mA4BCEAAAhCAAAQgAAEIQAACEIBAUggg8CLwJmWups5O+8m3e/du0jIk3MMavVtRUZEbRX19fcJHhPkQgAAEIAABCEAAAhCAAAQgAAEIJIEAAi8CbxLmaSpttJ98iIHpcDE+TYcfGQUEIAABCEAAAhCAAAQgAAEIQCBJBBB4EXiTNF9TZStiYKrcaQ0Gn6bPp4wIAhCAAAQgAAEIQAACEIAABCAQdwIIvAi8cZ+jqbUPMTB9rsWn6fMpI4IABCAAAQhAAAIQgAAEIAABCMSdAAJvRgXeF198UbZt2yYff/yxfPLJJ9Zv86NI2rZta/2cfPLJub87duwoV111VdzndGLsQwxMjKtcG4pPXaOiIgQgAAEIQAACEIAABCDwNYG9e/fK7NmzZcOGDbmNuIGTDAK6wXbXrl1l1KhR0qpVq2QYjZWpJIDAmxGB98CBA7J69WrrZ9WqVaKbenkpuonUtddeKz179rR+WrRo4aUZjuFx/lTOAQTeVLqVQUEAAhCAAAQgAAEIQCAwAuvWrZPbbrtNdu7cGVgfNBw8gfbt28tDDz0kV199dfCd0QME8hBA4E25wPvKK6/IrFmzLFH30KFDvp4ERx11lCX2jh49Wi699FJf285CY4iB6fMyPk2fTxkRBCAAAQhAAAIQgAAEgiKg4m737t2Dap52IyCwdu1aRN4IuNNlwz2BmolIvYFSX5/7MxJORiiJgx1R2+DFAW+99Zbcc889snTp0ryH67dLKs6ecsopuTQMmo5Bf7Ro2gaTukF/f/jhh5ZIXOhbxQEDBsjYsWPl3HPP9WJuJo8JUgw0fle/aNGIbf170KBB1m9KMASC9GkwFtMqBCAAAQhAAAIQgAAEIBAFAU3L0KlTp9w9duvWra0I0G7duon+TYk/gT179sj69eutCGz9W4tqLVu3biVdQ/zdlzoLieAt4lIFlCSB97PPPpMZM2bIAw880Ghk+uFh0itcdNFFnibza6+9lkvzoBctZ7n99ttlzJgxcuKJJ3pqP0sHBSkG2gXegwcPysiRIy1xt6qqyhL9Vaivra3Ni7vY+1nyUaljDdKnpdpCfQhAAAIQgAAEIAABCEAgvgT0fmzatGmWgSro6v11ZWVlfA3GsoIE6urqLLHeiLzjx4+XqVOnQgwCoRJA4E2RwLtixQq56aabRPPt2kv//v2t6NrzzjvP18n15ptvWmKyM0pY8/I+/vjj0qdPH1/7S1tjQYqBxie9e/duIO6mjaGX8Wzfvl3eeecd6dWrl5fDmzwmSJ/6biwNQgACEIAABCAAAQhAAAKREdDgmy1btlj9L1++nPvnyDzhT8eqx/Tt29dqTDde27x5sz8N0woEXBJA4C0CKikRvPfee68VOWsv1dXVlrB72WWXuZwO3qq9/PLLVjqINWvWNGhAxd+7777bW6MZOCpIMdAIvBqpq4+I2NMy2KN79e8TTjhBfvOb38irr74qy5Ytk9dff92ir8fo+8ccc4z813/9l+VfnVNz586VESNGWP937NjROqZDhw4NPKYi6vPPP2+1PXDgQFmyZInVnn7IdenSxaqrbWn7unGfiTJeuHCh9d59990n+/fvt/I7f/DBB7Jo0SKZPHmyNG/e3Ko7ceJEqampsfp1Hmv6MmkpzLwcMmSI/Md//IfceOONsm3bNqsfU9ev6RakT/2ykXYgAAEIQAACEIAABCAAgegJ2O8d9N6FtAzR+6QcCzR6V+9tTUnSk+DljJtj40MAgbeIL5Ig8N56663yyCOP5EZy1llniQq+119/fagz7emnn7YE3R07duT6veWWW+Thhx8O1Y6kdBakGKjCqQqr+URMp8A7c+bMBiKt8/3FixfnhFh9z/l/vnQPKvD269dP7rrrrpy4rK/ZhVr7/ytXrmyQNkL70Q0C58yZU1Tg1UdfunbtaqWf0GL+18dk9BEn87qZFyoy63tB5CIO0qdJmdfYCQEIQAACEIAABCAAAQgUJ8C9Q3FGSauBT5PmsXTZi8CbYIFX8+1q+oUNGzbkRvHDH/5QnnjiCWnTpk0kM3XXrl0yePBg+d3vfpfrX8W3J598kry8Do8EefE3Iu0111wjw4YNk0mTJuWibJ0CrprVVISv/X0VR3W+mfy9zv/NEJ1irr5uF51NPY3iVdFXc0abiFx9z358UxG8Os/Vdmf0uEbmXnjhhZbIfPHFF1tCsUb/akHgjeTSQKcQgAAEIAABCEAAAhCAgI1AkPeDgI6GAD6Nhju9HiaAwFtkJsQ5gld317SLuz/72c9k/vz5sZjbKio++OCDDURe3V2ScoRAkBd/u4irgqZGtZp0CFEKvDp6Z+SsM+VCqQLvuHHjZPr06Q0eh7HPMxNNbITeP/7xj0TwciJCAAIQgAAEIAABCEAAApESCPJ+MNKBZbhzfJph58dg6Ai8CRV4nWkZZs+eLXfeeWcMptQREzSP6qhRo3IvkK6hoXuCvPjbRVztVf83qRSiEnhVaNXcvZrD15mz126fsdeeokEjkPXLC81p5GzH7E5qoorznQQqIs+aNUuGDh1qbbBmj0L286QJ0qd+2klbEIAABCAAAQhAAAIQgEC0BLh3iJZ/EL3j09Korl271tof5+OPP5ZPPvnE+m1+tKW2bdtaPyeffHLub90HqHv37qV1lJHaCLwJFHidG6rFUdw1WJ0iLxuvHZlwQV78nQKv2Yjs0ksvzRlgNlHTF8JI0aD92DdZ0/+nTJlipXtwbpSmuXu1mI3VVMSdMGGC9ZpultauXTtrh9J8m6yZjd90sziTh1iPy7f5GpusZeSTjmFCAAIQgAAEIAABCEAgZgSCvB+M2VAzYw4+bdrVX375paxatUpWr15t/f788889zY3jjz9eevbsKddee63107JlS0/tpO0gBN6ECbwrVqywhC1T4pSWoRBKZ7qG5cuXS58+fdJ2LpU8Hi7+hZHly+FbMuAIDsCnEUCnSwhAAAIQgAAEIAABCCSQAPcOCXSaC/3IVKmvr0/fAD2OaOPGjXL//ffLM88847GFpg+77rrr5I477pDLL788kPaT0igCr4sTNC4npm6q1r59ezlw4IBltW6o9vzzzydirvXo0SO38VqLFi2sdAEnnnhiImwPykg+0BF4g5pbtAsBCEAAAhCAAAQgAAEIxJsA94Px9o8X6/BpQ2pvvPGG6FPcTz75pBecJR/Tv39/GTNmjJx//vklH5uGAxB4EyTw6jcSDzzwgGXxWWedZT3u3qZNm0TMw127dklVVZXs2LHDsvf222+3vsHJcuHij8Cb5fnP2CEAAQhAAAIQgAAEIJBlAtwPps/7+PSwTz/99FO55557ZN68eZE4efjw4TJ27Fg56aSTIuk/qk4ReBMi8L711lty3nnn5axduXKlXH/99VHNG0/9Pv3009K7d+/csW+++aace+65ntpKw0Fc/NPgxYZjwKfp8ykjggAEIAABCEAAAhCAQBAEuHcIgmq0beJTkWXLlsnNN98s+/fvj9QZxxxzjDz66KPSr1+/SO0Is3ME3oQIvLpZlNk4q7q6Wl544YUw54lvfV1zzTWyZs0aqz3d2Es3ucpq4eKfPs/j0/T5lBFBAAIQgAAEIAABCEAgCALcOwRBNdo2s+5TjdodN26caycoL90k7ZJLLpG2bdvKySefnPutjXzyySfy8ccf535v2bLF2pytlDSq06dPt6J5s1AQeBMg8L7yyity2WWX5SzVBNX2/5M0UV9++eUGia/1/0svvTRJQ/DN1qxf/N2APHjwoEycOFFqamqkQ4cObg6JtA4+jRQ/nUMAAhCAAAQgAAEIQCAxBLh3SIyrXBuaZZ9q1O6iRYuKsmrdurUl6vbs2dP6rXs0lVJ0TyoVeVevXm393rNnT9HDVU/QaN60FwTeBAi8vXr1kueee86yNA1RrzoGk2T7xz/+sTz77LNpP8/yji/Mi79Gf+vGdrW1tYGxDqIPBN7A3EXDEIAABCAAAQhAAAIQgECEBMK8H4xwmJnqOos+/dvf/malQXjppZeK+lo3QNOfY489tmhdNxX27dtnbeKmP8XKlVdeaaWP+M53vlOsamLfR+CNucCr307o5D906JBlqe5CaM/Fm8SZp7l3za6GRx11lOhJWeq3Nkkct9PmLF78S/WbW4FX6y1evFgGDRokzZs3L7Ub3+rjU99Q0hAEIAABCEAAAhCAAARSTYB7h/S5N4s+7dq1a1Fx99Zbb7WE3crKykCcXldXZ4m8Dz/8cJPtq8i7YcOGQGyIQ6MIvDEXeFesWCF9+/a1rOzUqZO8/vrrcZg3Zdtw4YUXytatW612li9fLn369Cm7zaQ1EObF3+Rv1uhp/fvLL7+UBQsWyLZt2yxsmzZtkqqqKutvfV9zPmsZMmSItGvXzpqDmiJh6tSpohdwU3fz5s3WBVIjg519nHDCCfKb3/xGXn31VfnP//xP0dQic+bMyQmwzraM/+z933DDDXLcccfJyJEjrf7t73Xs2NH6Bu7UU0+13l+4cGHOZu1HNyI04zB1g07zEKZPkzbfsRcCEIAABCAAAQhAAAIQOEKAe4f0zYas+bRYWoZTTjlFnnjiCVFhNYyiUcSDBw+WDz/8sGB3aU7XgMBbZJYpoFISOPs9aW+66Sb59a9/bTWruUgnTZrkdxeRtKfjmDx5stX3jTfeKI8//ngkdkTZaZgXf6f4qtGu+lpFRYWoSKv/qyj6wQcfWHNs/vz51nvbt2+XESNGyNy5c0sWeGfOnGkJsCqqOiNxd+/ebSVf14Tn2o8p2l9T/dv9ZReXtT0VrEePHp03gtdeN0ifh+nTIMdB2xCAAAQgAAEIQAACEIBAsAS4dwiWbxStZ8mnxTZU032jVNw97bTTQnXF+++/b4m8ut9ToZLWjdcQeGMu8LZp00ZUvNLyhz/8QS666KJQT46gOnvttdekc+fOVvMq8O3atSuormLbbpgXf6fAq1A0mleLXRzVqFf7e05htpQIXns7+ndTNhgn2evoa87+7RG8+v6UKVOs6OF8Am+hukFOiDB9GuQ4aBsCEIAABCAAAQhAAAIQCJYA9w7B8o2i9az4VAO59GnbQkUDFR977LEoXJDr8yc/+UmTgYRPPfWUlTs4TQWBt4g3o4zgffHFF+Xqq6+2LGzfvr289957aZp7csYZZ1gbf2lZt26dXHXVVakYn35jpGkFWrVq1eR4wrz4x0HgNVG748ePtyKC9dEIZ8qEpgRe/RLARBprnt2mInjtUcnOukFOsjB9GuQ4aBsCEIAABCAAAQhAAAIQCJYA9w7B8o2i9Sz49NNPP5Xvfe97sn///ryI4yDuGsOaEnmPOeYY+fOf/ywnnXRSFFMlkD5TIfDqY92qvJt8ovlIVVdX5x5JL4VklALv7NmzrUfOtehj8g888EAppse+7u23324JfVpmzZolo0aNir3NbgxUgVfzJWtKjeHDhxc8JMyLv1uB102KBv2ywUT/akSvlnw5ePV1U89AMPl/3333XStFh3NDtKZSNGj+af1CQPvSYu/bmfJB+ylU140PvdYJ06debeQ4CEAAAhCAAAQgAAEIQCB6Atw7RO8Dvy3Igk9Vm5o3b15edJqWQffeiVO5/PLLC6ZrUL3GaFJxstmrLakQeL0O3s1xUQq8Knjed999lpm//OUv5a677nJjcmLqaI7Wn//855a9d955p6ignYaiAq/ZHVI3k9Ocsj179mw0tDAv/m4FXhVcm9rkzPllim5sphu26SZnblIwmOMffPDB3EZtTjCFNnlzbqZm71vbUMF3woQJ1sZwmg9o7NixuY3XnHWDmmdh+jSoMdAuBCAAAQhAAAIQgAAEIBA8Ae4dgmccdg9p9+kbb7wh3//+9/Ni1Q3VdPP2sHPuFvOx6jNdunQpuPHan/70Jzn//POLNZOI9xF4i7gpSoH33//930XzgmjRR9MHDhyYiEnl1sglS5bIoEGDrOo61ieffNLtobGuZxd4jaEaYa4Rveecc07O9iRc/J05cMsFX2hztXLbjcvxSfBpXFhhBwQgAAEIQAACEIAABLJMgHuH9Hk/7T7VJ3QL6TYbNmyQK6+8MpZOfemll6Rr1655bevfv38uWC2WxpdgVCoFXs2/qQq9Fv0GQTcqW7RoUd5HwouxilLgveKKK3Lh7evXry84IYuNIa7v6wWgW7dulnkaNv/73/8+rqaWZFc+gdc0MGbMGEvoPfrooyUJF3+/BV5n6oSSwCagchJ8mgCMmAgBCEAAAhCAAAQgAIHUE+DeIX0uTrNPNfWCalT5yq233pp7ejauXtUnfR9++OG85qkWpZpU0kvqBF4VpDSf69ChQ+WFF16wHpW/4IILcq9VVFSU5LMoBd6zzjrLSvqs5a233moQ/VnSIGJa+e2335Zzzz3Xsk6TdO/YsSOmlpZmVlMCr7akjy6oyHvLLbfkGq6vry+tk5Bq+yXwmi9d9KI6Z86cRrl3QxpO4N2k+QM9cHh0AAEIQAACEIAABCAAgQwR4N4hfc5Os0+vv/56eeaZZ/I67S9/+UsuTWVcvVpXVyenn356XvOuu+46efrpp+Nqumu7Uifw6iPgCxYssDYnW7lyZaIFXt3VT/Obavn888+lVatWrh2bhIp79+6V448/3jK1ZcuWVqS1iqNZLHEVeLPoi3LGnOYP9HK4cCwEIAABCEAAAhCAAAQg0JAA9w7pmxFp9anqUqpP5Sv6lLLugZOEovv0zJgxI6+p+/fvt3SpJJfUCbz2iMPXX3/dEniTmqIBgTfJp1ZptiPwlsYrrrXT+oEeV97YBQEIQAACEIAABCAAgaQS4N4hqZ4rbHdafbps2TK54YYbGg28devWopGxxx57bCKcuW/fPksj3LNnTyN7dYx9+/ZNxDgKGZk6gVcHun37dtFNrbZt22aNu2PHjqLO6tChQ8nOIkVDychcH0CKhvinaHDtTCpaBNL6gY57IQABCEAAAhCAAAQgAAF/CXDv4C/POLSWVp8OGjRIlixZ0gjx4MGD5de//nUc0Lu24cYbb5QnnniiUX0dY77XXTccg4qpFHj95BqlwMsma356Mry20rTJWhDUdKM1LboDZ9pKWj/Q0+YnxgMBCEAAAhCAAAQgAIGoCXDvELUH/O8/rT7VSF1NG+osSYx6Xb58uRUQ6iyaPjRfZK//syS4FhF4i7CNUuDt37+//Pd//7dl4eLFi2XgwIHBzYQIWtZvgPRbEi0a7m/GGoEpvnaZT+DVC4hurHbOOefk+krrxb8YTATeYoR4HwIQgAAEIAABCEAAAhBIO4Gs3g+m2a9J8alqFscdd5yrfZ7Wrl0r1dXVjdymY9W8tS1atEiUSw8cOGDlE86XJnPNmjXSvXv3RI3HbmwqBV4VkJxiqE5Ifb2ioqIkZ0Up8I4aNUruu+8+y95f/vKXctddd5Vke9wrz5w5U37+859bZt55550ye/bsuJvsyj67wHvRRRdZwm7Pnj3zXhDNi1nKwRuEwKu5t/VLEP3CoHnz5q78FESlpHygBzF22oQABCAAAQhAAAIQgAD2nEqnAAAgAElEQVQE3BPg3sE9q6TUTIpPVbPo1KmTpVUMHz68Sbx23cZe8Uc/+pE899xzSXFNAzt//OMfy29/+9tGtiddd0udwLt7924ZN26cTJ8+vWQxN9/MjFLgVcFz9OjRllkjRoyQBx54IJEnTyGjb7/9dpk7d6719qxZs0QF7TQUtxfLOFz89XxZsGCBnHjiiTJkyBALv8mtY74kmTJlitTW1lrv2fNb23Nb6+vPP/+8nHDCCdaXK9qGpmDYvHmzdOnSxTrW1NfNDzU/tn4TaPJkb9q0Saqqqqx6U6dOlQkTJlh/27+YUWFYd+9Ue+3HXXDBBTJy5EhZuHChdYyOY86cOZEIvXHwaRrOIcYAAQhAAAIQgAAEIACBtBMI697Bfk9mZ+o1CC5Mv2ggj4qQNTU1nvZUCtNW7Sssn5Y7LntQ2oUXXiiTJk3KG5Sm/ei99v3339+oyxkzZsjdd99drimRHH/vvffKmDFjGvV9xx13WFpCUksqBV4VgFQY9SOSL0qB98UXX5Srr77amlvt27eX9957L6nzLK/dZ5xxhuzcudN6b926dXLVVVelYnxuH3eIw8VfBV4VYjXyVX/n+3/YsGHWBb9NmzYNvjyxf5mya9cuK4+NRpmb3Loq+upx8+fPb/Bliwq1Gm1rIup1waH/5xNl7dG+TR2nj1n4ed57nYhx8KlX2zkOAhCAAAQgAAEIQAACEAiPQBT3DhpM07Vr11xwTamjLXSPV2o7busj8LolVVo9t2kltVW9z9e8tc6im6vpJmtJLLqZmm625ix9+/YVzSuc1JI6gVcdoUJRjx49fPmGJ0qBV8eiopoKaVr+8Ic/iD7yn4by2muvSefOna2haNoMFQizVqL4QHcydka8Oz9A7f+rj0w0rmnHROXq/4sWLZLJkyfnvlgplIrB+bqJIjZfytgjeLVdEw3c1HEIvFk7exgvBCAAAQhAAAIQgAAEkk0givvBcgXesIm7FXhJ2VeaZ9xuDK+tXnbZZfLKK6806iDJQXpqe75cu5deeqm8/PLLpcGMUe3UCbz58u8qb6+PH0Qt8N50002i34xo0UcTNCIyDUXHoWKgFv3m5PHHH0/DsEoaQxQf6OUKvBs2bMila7C3pd/k+iHwrly50orqNikhnBG82qeJELYLwwi8JU09KkMAAhCAAAQgAAEIQAACEROI4n4wn8BbSho+fZzf3Pd98MEHVpo+3WjLpNjT1Ht6z2j+N8E6irpQKj6nG+yajm7GrpuBaZqADh06WE+BmlSCJtjo1FNPzZuyT+8tnXW1jSBLFD71Mp6mBF5t75RTTrH0p5tvvlnOPPPMvE+Tv/HGG3Leeed56T7yY9588005//zzG9mhT5m/++67kdvn1YDUCbxeQRQ6LmqBd8WKFaJh4lo0CbbmL01D0Q+GrVu3WkPRcP8+ffqkYVgljSEOF/9SIng1mlzFVRVfTb5cM+B8Am9TKRr0uHxCreZi1nQk+p5+C6sf5Potmv5fLILXz9zbJTnSVjkOPvVqO8dBAAIQgAAEIAABCEAAAuERiOLewSnwOu8H3aThswu8+vj+gw8+aN0fGqHY/n++lH1KuNDTns57SP1f9yPSvXuc4qym+jMBSM6nQp1etNcN0sN2nwbZT1hta/Tu//zP/8hXX33VqMs9e/bI8ccfH5YpvvajtuuT5M6iaV41eCypBYG3iOeiFnh1ch177LFy6NAhy9Ikf0tiUNu/LTnqqKNk37590qJFi6SeQ57tjuID3WlsKQKvfqDav93VtsyGZvrtrTOCV98vtMmavlcoEldfX7NmjbUp29ChQ6Vly5ZFBV69EJtvhNlkzfOU5EAIQAACEIAABCAAAQhAICQCUdwPOgXefBuwNZWGzx7Y47wHbEosVjGtUCo+O26n8OtM0eB8YttsCJ5P4C1UN0j3IvAGSde/thF4/WPpqiVzYtTX17uqH1SlqAVeHVevXr3kueees4bYv3//3LddQY056Hb1MQlz4f7xj38szz77bNBdxrL9KD7QYwkiRUbh0xQ5k6FAAAIQgAAEIAABCEAgQAJR3DvkE3hLScPnVeB94YUXCqbicyvw6p4w9s25m4rgdW7kHUUEb9RaVlNTlxQNpGgI8NLWuOlyBN58eXiTmoNXyWhCaw2NN2Xjxo0N/g/VMWV2pgmrL7/88lwr+r8+gp/FEsUHehY5hzlmfBombfqCAAQgAAEIQAACEIBAcglEce+QL0VDqWn47Cka7E9xNhXBu2DBgoKp+OwebCpFg6artO/XomPRoikEnX2rJlSobpAzJgqfehkPm6yxyZqXeeP5GK8Cr/PE9mzA1wfGIYJXTbFHvapYrd+AJbFcc8011uP3WvSDRJOuZ7Uk5eKfVf94GTc+9UKNYyAAAQhAAAIQgAAEIJA9AlHcOxTbZE290FQaPq8RvOb+P18qPqfn7QF7aku7du2sfYmcm6ktXLhQvvzyS2vfFi32lH333HOPjB07VrSOFmfdoGZbFD71MpZ8Aq/mU9aN1c4555wGTerrum+Ss/z617+WwYMHe+k+8mOeeOIJufHGGxvZofNs2bJlkdvn1YDU5eAtlly7VFBxEXjfeuutBjsU6o6Q119/fanDibT+008/Lb17987ZoLl4zz333EhtirLzpFz8o2SUtL7xadI8hr0QgAAEIAABCEAAAhCIhgD3DtFwD7LXpPjULvBedNFFlrDbs2fPvGhUQL///vsbvTdjxgy5++67g8QZWNv33nuvjBkzplH7d9xxh8yZMyewfoNuOHUCrwJTh/To0aPRLoteYMZF4FXbdbI98MAD1jDOOussawOrNm3aeBlW6MdovhzdWXPHjh1W37fffnvei0TohkXYYVIu/hEiSlzX+DRxLsNgCEAAAhCAAAQgAAEIREKAe4dIsAfaaVJ8qgJvp06dLGF3+PDhTTKZOXOm/PznP29U50c/+lFur6hAoQbQuO4F9dvf/rZRy7/85S/lrrvuCqDHcJpMncCbL/+uokxyDl4zFT777DMrb82BAwesl374wx/K888/H85MKbMXFdx/97vfWa20aNHCyodz4oknltlqsg/3evHP91iNXySCbNtpo3OHVL/GYG/HuSus2RFWv3Awmwlo1L+mCxk0aJD12xR9/EjPL/PIjxv7vPrUTdvUgQAEIAABCEAAAhCAAATSQ4B7h/T40owkKT5Vgfe4446TVq1aFXXC2rVrLT3NWXSs+/fvt/SdJBXV04455hjJtwmephDp3r17kobTwNbUCbx+eyJOEbw6thUrVlj5Z0z52c9+JvPnz/d72L62N2zYMHnwwQdzbWr+lj59+vjaRxIb83rxD1KEDbJtp4+CFnhV3NXzQ3PodOjQoUH3zh1Xx40bJ1988YV1LlVUVFh1EXiTeFZhMwQgAAEIQAACEIAABJJBwOv9YDJGl00r0+rT1q1by+eff97IqXqvbdenkuB11aM0r7CzHH/88bJnz54kDKGgjakUePNF8aYhgtd40ZkvZPbs2XLnnXfGciLed999MmrUqJxtSc7T4jdgrxf/IEXYINsOU+DVqFz9YmHSpEl5U7U4BV7d1VUjyjVKXndhReD1e7bTHgQgAAEIQAACEIAABCBgJ+D1fhCK8SWQVp/qZmqLFy9uBF5f183WklR0czXdZM1Z9InefK8naWypE3hV2NFovOnTp8sLL7wglZWVVp7ad955R3r16lWyb+IWwWsGcOutt8ojjzySG08cRV6nuHvLLbfIww8/XLIP0nqA14u/irBaJkyYYP12fnlhdg/V96ZMmZITLDU3defOna3dRbXoFyF6XnTp0iXXjp4vemHTfMkmdYE+puBsy/klyqZNm6xj7H3b7dL6J5xwgvzmN7+RV1991Yqqff311612NS2CRsvqt2ga6V2sHd0pVQXZbdu2Wcebvu3zxL67a/PmzRtNoXwRvOPHj5dp06blxk8Eb1rPPMYFAQhAAAIQgAAEIACB6Al4vR+M3nIsKEQgrT7V+/cbbrih0bA1sreurk6OPfbYREyKffv2WRphvkjdJEYjO6GnUuBV8Wf06NGycuVKy3kXXHCBzJo1S4YOHZp7/Nrt7IurwKv2d+vWzcojakqc0jU40zJ07dpV1q9f7xZ7Jup5vfgbgdZEmqpYqd+mqYCrc96IpvrbngZBj9O6+pqmIXBGuRpBV9tVkdVeDh48aCVgr6mpsb4wMedYPvHUHGfvW//W5Oz2dAnmfT1H1TZjl9P5znZ0rKaufex2Wwq9btrOJ/Dql0Kam1ejfjVVg/5NDt5MnIoMEgIQgAAEIAABCEAAAqET8Ho/GLqhdOiaQFp9qkFWmrc2XxkzZozcc889rhlFWXHs2LGiT5XnK5pPuGXLllGaV3bfqRN4VYgyYq5GJ+q3Cb17906lwKuPk/fv37+ByKsbr2lYuYpwURQVxTRM32yopjaouPvkk09mflM1pz+8XvydaRRM1LoKs/rewoULG3Rlonidx9lFTnOAvY4zgtdsUKb5bE2krjN61h7Bq20uWbLEitDNl29XX9OdK/fu3dtI3HXbjtqYT2z2EsGrAq8K39q3bmZ44YUXIvBGcRGhTwhAAAIQgAAEIAABCGSAgNf7wQygSewQ0+zT66+/Xp555pm8vvnLX/5iBVfGuag2ePrpp+c18brrrpOnn346zua7si11Aq+O+tlnn5Wzzz7bAqCPfeuj3EOGDLEiHJuKOMxHLM4RvMZeZ7qGs846SzRPr56AYRY9Ie6++27ZsWNHrlvSMhT2gNeLf1MC7wMPPGBF2To3FVMrShF4Nep95MiRuXQF9ghee9t2oVcvmDt37sylhHBG3qoNKvaaou9rff0CQCPRTUSyed3+vznWKRQXEnhLzcFr0rrYI5v1ERS1Tzm4LV596rZ96kEAAhCAAAQgAAEIQAAC6SDAvUM6/GgfRZp9unHjRrniiivyOk01KWegWdy8q5pgoZShv//97+Xyyy+Pm8kl25NKgbdkCk0ckASBV813brymr2kOVA1Bv+yyy/xE0qitl19+2QrJN7laTQU2VGsau9eLv4qqH330Ue4LCxU9X3nllVyKBvO388uMfMKwfSMye4oG/YLE/p5GxI4YMULmzp3bSDzWSGAj7mrkq4q4KgirMHrppZc2GcFrhFsTNavH2v8u1k4hgVfbVS72dA52bxRK0aACrxZ9X3MT23MYuzmJvPrUTdvUgQAEIAABCEAAAhCAAATSQ4B7h/T40owk7T7V+3V9Ojtf0aCtK6+8MpZOfemll6zAsnxFn4o3gWSxNL4EoxB4i8BKisCrw1ixYoXcdNNNcuDAgQaj0pNQ86Kcd955JUyN4lXffPNNS9h1nuAtWrSQxx9/XPr06VO8kQzX8Hrx10h0zQ2j30BpaWqTNX3fvgGaXtTs+XWNkGna0bZ0IzatY39P+2rXrp307dvXSv+hc8oI+qZ/bcO8rukcNOe12tlUigZzjF3Iveaaa1y305TAq207N4Mzkfx//OMfc1HD9o0ZjcCrxzpzHbuZql596qZt6kAAAhCAAAQgAAEIQAAC6SHAvUN6fGlGknafvvHGG/L9738/r+NOOeUUS3s47bTTYuXY999/3wre+vDDD/Pa9ac//UnOP//8WNns1RgE3iLkkiTw6lA0L69Gzuqj+s7SqVMnufbaa6Vnz55y0UUXeZozr732mqxevVpWrVolW7dubdTG7bffbonJJ554oqf2s3RQ2i/+WfJlVj7Qs+hTxgwBCEAAAhCAAAQgAIEgCHA/GATVaNvMgk/1yd558+blBa1Pj2sqhzgVTb2gT53nK8OHD7eeUk5LSaXA64zaU2c5oxzdOjBpAq8Z11tvvWVF1xYKNddH6VXs1W9ZTj75ZGnbtq31W3+0fPLJJ9bPxx9/bP3WbztU1NWcpPmKRmlqOohzzz3XLdrM18vCxT9rTsanWfM444UABCAAAQhAAAIQgIA3Atw7eOMW56Oy4NNPP/1Uvve978n+/fvzukKfKn/sscdi4aaf/OQn1tPl+coxxxwjf/7zn+Wkk06Kha1+GJE6gbfQ49ZeYSVV4DXj1Xyss2bNssTZQ4cOecWQ97ijjjrKEolHjx5t5VqllEYgCxf/0ogkvzY+Tb4PGQEEIAABCEAAAhCAAATCIMC9QxiUw+0jKz5dtmyZ6KbkhUocRN6mxF21+6mnnpJ+/fqFO0EC7i2VAu+CBQss0dG5yZQXlkkXeM2YNS+vplYw6RVUCPdSNEepSfOgqR403y7FG4GsXPy90UnmUfg0mX7DaghAAAIQgAAEIAABCIRNgHuHsIkH31+WfKpPjI8bN64gVE3X8MQTT4Sek1dz7g4ePLhgWgY1ePr06dYT6GkrqRN41UG6CVWPHj2kQ4cOZfsrLQKvE8SLL74o27Zts1IwmDQM5m+tqykbzI9J4aAbZ1111VVlM6WBwwSydPHPis/xaVY8zTghAAEIQAACEIAABCBQHgHuHcrjF8ejs+bTm2++WRYtWlTQFZoSVEXeK6+8MhR3vfTSS5a4W2hDNTWipqZGHn300VDsCbuTVAi827dvt0KrVbAsVLKWgzfsiUR/pRPI2sW/dELJOwKfJs9nWAwBCEAAAhCAAAQgAIEoCHDvEAX1YPvMok+7du0qKqw2VW699VYZM2aMVFZWBuKAuro6mTFjhjz88MNNtq9C84YNGwKxIQ6NpkLgVZCbN2+Wqqoq35mmNYLXd1A0WDKBLF78S4aUsAPwacIchrkQgAAEIAABCEAAAhCIiAD3DhGBD7DbLPr0b3/7mxVwWUzkVewq8urPscce64sX9u3bZwm7+lOsqLiruYO/853vFKua2PdTIfAePHhQJk6caIVa50vLoPlmveblReBN7NyOveFZvPjH3illGohPywTI4RCAAAQgAAEIQAACEMgIAe4d0ufoLPu0WLoG4+3WrVvn9nXS/Z1K3ddJ95datWpVbn+pPXv2FJ1IaU7LYB98KgTeYgKuCsCzZs2SoUOHim4SVkpB4C2FFnVLIWA/+XQO64WOklwC+sFiv77U19cndzBYDgEIQAACEIAABCAAAQgESiDLYmCgYCNsPOs+LbbxmtM1yktF3ksuucTaA8rs/6S/tXzyyScN9ozasmWLJe6Wcq+d1g3V8k1zBN4iJz8Cb4RXx5R3rSlF9AKlZfny5dKnT5+Ujzjdw1uxYoX07dvXGqR+QGnaGAoEIAABCEAAAhCAAAQgAIFiYkwpghU040sg6wKvekbTIGg07/79+yN11DHHHGNtpqbpI7JSUiHwFkvRoJuw6c5+kydPlubNm5fkWwTeknBRuQQCtbW1Mm3aNOsIjd7dunVrYEnHSzCLqh4IaFL3Tp06iXk8ZPz48TJ16lQPLXEIBCAAAQhAAAIQgAAEIJAFAoiB6fMyPj3s008//VQ0mnfevHmROHn48OEyduxYOemkkyLpP6pOUyHwKjwVcSdNmiTz589v8Ji0Pvo+YMAAUTHNyyZsCLxRTc3097t3715LFNy5c2dO5H3ooYekW7dupGtIiPtV0F2/fr3cdtttOXG3ffv2lljfqlWrhIwCMyEAAQhAAAIQgAAEIACBsAkgBoZNPPj+8GlDxm+88Ya1AdqTTz4ZPHwR6d+/v7WJ2/nnnx9Kf3HrJDUCrxF5Nfx627ZtDThv2rTJk7irjSDwxm3KpsuedevWSffu3dM1qIyPZu3atXL11VdnnALDhwAEIAABCEAAAhCAAASaIoAYmL75gU/z+3Tjxo1y//33yzPPPBOI06+77jq544475PLLLw+k/aQ0miqBNwjoCLxBUKVNOwEVeTUC1ETyQieZBDRyVyOwEXeT6T+shgAEIAABCEAAAhCAQJgEEAPDpB1OX/i0ac5ffvmltUma/qxevVo+//xzT445/vjjrc3Zevbsaf1u2bKlp3bSdhACbxGPIvCmbcrHczyarmH27NmyYcOG3MZr8bQUq5wEdEO1rl27yqhRo0jLwPSAAAQgAAEIQAACEIAABFwRQAx0hSlRlfBpae7Sp1/1CfyPP/7Y+vnkk09yf2tLbdu2zf2cfPLJ1t8dO3bkKegCmBF4EXhLOwOpDQEPBMyFht1hPcDjEAhAAAIQgAAEIAABCEAgdQQQA1PnUivFpync+6bPv3EfEQIvAm/c5yj2pYAAAm8KnMgQIAABCEAAAhCAAAQgAAHfCCAG+oYyNg3h09i4IpOGIPAi8GZy4jPocAkg8IbLm94gAAEIQAACEIAABCAAgXgTQAyMt3+8WIdPvVDjGL8IIPDGWOA9ePCgjBw5UhYuXJizctOmTVJVVeWX//O2s3TpUhk4cGCD98LoN9BB0XikBBB4I8VP5xCAAAQgAAEIQAACEIBAzAjYxZjdu3dL69atY2Yh5pRCYM+ePVJRUZE7hBQNpdCjrh8EEHhjLPBOnTpV2rdvLwMGDPDD167bUIFXS9j9ujaQiokjgMCbOJdhMAQgAAEIQAACEIAABCAQIAEN3NqyZYvVw/Lly6VPnz4B9kbTQRNYsWKF9O3b1+pGN+LevHlz0F3SPgQaEEDgjanAa6J3Bw0alDdi11wsvEbzPvLII9K7d+8G3zAZFGEKvOWOg/M5GQQQeJPhJ6yEAAQgAAEIQAACEIAABMIhUFtbK9OmTbM60+jdrVu3SmVlZTid04uvBOrq6qRTp06iUbxaxo8fLxqwR4FAmAQQeGMq8KpZKrQuXrzY+m0P9VdRtEuXLjnLNX3C2WefbUXcrlmzxnp9ypQpoh8Y+qjHggUL5OKLL5bu3btbr2uZMGGC9bu6urpR+/kEXhWcJ06cKDU1NdKhQwfr2O3bt8uiRYtk8uTJ8sEHH0i/fv1k27Zt0rFjR1m2bJlVT+vot5EfffRRLtWEsS3fOLwK1mGeNPRVOgEE3tKZcQQEIAABCEAAAhCAAAQgkF4Ce/futUTBnTt3WoNUkfehhx6Sbt26ka4hIW5XQXf9+vVy22235cRdfQpbxfpWrVolZBSYmRYCCLxFPKmAosydogKpCqdajGiqf6sIq9/u5RNE7WJsmzZtLOFX66ngq0XfnzVrlgwdOrRgBK89B68Rgd955x3ZsGFDrh39Rqpr166WuDxu3DiZPn261Z6Kyub/Xbt2WfY/+OCDlg363rBhw2TSpEmWANzUONJykjEOEQReZgEEIAABCEAAAhCAAAQgAIGGBNatW2cFYlHSQ2Dt2rVy9dVXp2dAjCQxBBB4Yy7wGvNUGFWhVkVaFUqdwqh530TwmihaFXjt4qtbgVfrOXPw2oVbfd+0q8KvPaJY3zP9698myrd58+bWcObMmSM9evRA4E3MZaJ8QxF4y2dICxCAAAQgAAEIQAACEIBA+gioyKsRoCaSN30jzMaINHJXI7ARd7Ph7ziOEoE3IQKvmmlPnWAXeJ35ep0RvH4JvMYGkxdI88yoCKypFuyRvXak9jQOCLxxvASEYxMCbzic6QUCEIAABCAAAQhAAAIQSB4BTdcwe/Zs677abLyWvFFk02LdUE2fbB41ahRpGbI5BWIzagTehAi8ThHXLvY60x6oqDpixAiZO3euFIrgdebTtWNoapM1bVsjcLWMHDnSisJ1RheXKvBqfWe0cGzOEAzxhQACry8YaQQCEIAABCAAAQhAAAIQgECiCDz66KNyyy23WDbr37qvDwUCEPCfAAJvTAVeI+guXLgwZ+GSJUtyQqjJzaubmukma1pMmoQhQ4ZIu3btpG/fvnkFXq2rIq7m2S20yZo9B6/W1z40NYSxS19ToddE5drt0ffUBn1fN19rKkWDcxxssub/SR6HFhF44+AFbIAABCAAAQhAAAIQgAAEIBAega+++krOPPNM+fDDD61OTznlFHnvvffkW9/6VnhG0BMEMkIAgTemAm9G5h/DzAgBBN6MOJphQgACEIAABCAAAQhAAAIQ+JrA2LFjZcaMGQ14jBkzRu655x4YQQACPhNA4EXg9XlK0RwEGhNA4GVWQAACEIAABCAAAQhAAAIQyA6Bt99+W84999y8A9b3zj777OzASMlIzZPg9uGYp71LGWKhfZxM+s81a9bkmjNPh5unx0vpJ2t1EXgReLM25xlvBAQQeCOATpcQgAAEIAABCEAAAhCAAAQiInDDDTfIsmXL8vber18/eeqppyKyjG69Emhqv6ZS2mxK4B03bpxMnz5dKioqSmmSuiKCwIvAy4kAgcAJIPAGjpgOIAABCEAAAhCAAAQgAAEIxILA6tWr5dprr23SllWrVknPnj1jYS9GuCOQJoFX94N65513pFevXu4Gn4BaCLwIvAmYppiYdAIIvEn3IPZDAAIQgAAEIAABCEAAAhBwR+Ciiy6S119/vcnKWucPf/iDuwapFQsChQReTa2wYMEC2bdvn8ycOdOy1Z5awZl6YcqUKVad2traBuPSevkiePNF/E6dOlW6du0qVVVVon9PmDDBakvbNu3OmTNHWrZsadmipWPHjrmoco0i37Ztm/X6kiVLZMCAAbFgXI4RCLxF6Cmg+vr6chhzLAQyTwCBN/NTAAAQgAAEIAABCEAAAhCAQAYIzJs3T0aMGOFqpHPnzpXhw4e7qkul6Ak4c/BWV1eLXfQdNGiQJZQePHhQRo4cKfq/EWDbt2+fE1FVkNWST+DV4+05eFV87d27t0ycOFFqamqkQ4cOotG3ixYtksmTJ8vKlSuttoxAa7dH+/noo49EhV7N4avv7dy50+pXReO6urpUCLtmZiDwIvBGf5XAgtQTQOBNvYsZIAQgAAEIQAACEIAABCCQcQJ79+6VM888UzQS003RPKvvvvuutGrVyk116kRMoKkIXmfkrdatrKy0NtNzvuclB6+9b/O3Cr8qJC9cuLABGRPFa4/y1QoqDD///PPWMQi8IU6muAhCRPCG6HS6Si2BuJzPqQXMwCAAAQhAAAIQgAAEIAABCERM4P33389rgQp9WjRiMl857bTTItTOcl4AACAASURBVLac7t0QiFLgNWkghg4daqWD0N8tWrRoENnrHAMC79dEok5LEBdBCIHXzWlOHQg0TSAu5zN+ggAEIAABCEAAAhCAAAQgAIFwCXA/GC7voHrzIvCWmqIhXw5eMx6T2kH/N+kd1KZXXnkll4bBPvZiAu+GDRsapYkIil0Y7ZKioQhlBN4wpiF9pJ0AH+hp9zDjgwAEIAABCEAAAhCAAAQgkJ8A94PpmBnOHLw6qk2bNuVNw2BSNKjA69xkTVMqfPnll1aqBHtx1tP37Ju1aVqFLl26WH1qu3bh12yyZmwywrLZiE1ft6dosPfFJmsBz8+4XAAQeAN2NM1ngkBczudMwGaQEIAABCAAAQhAAAIQgAAEYkSA+8EYOQNTUkuACN4irkXgTe3cZ2AhEuADPUTYdAUBCEAAAhCAAAQgAAEIQCBGBLgfjJEzMCW1BBB4EXhTO7kZWHwI8IEeH19gCQQgAAEIQAACEIAABCAAgTAJcD8YJm36yioBBF4E3qzOfcYdIgE+0EOETVcQgAAEIAABCEAAAhCAAARiRID7wRg5A1NSSwCBF4E3tZObgcWHAB/o8fEFlkAAAhCAAAQgAAEIQAACEAiTAPeDYdKmr6wSQOBF4M3q3GfcIRLgAz1E2HQFAQhAAAIQgAAEIAABCEAgRgS4H4yRMzAltQQQeBF4Uzu5GVh8CPCBHh9fYAkEIAABCEAAAhCAAAQgAIEwCXA/GCZt+soqAQReBN6szn3GHSIBPtBDhE1XEIAABCAAAQhAAAIQgAAEYkSA+8EYOQNTUksAgReBN7WTm4HFhwAf6PHxBZZAAAIQgAAEIAABCEAAAhAIkwD3g2HSpq+sEkDgReDN6txn3CES4AM9RNh0BQEIQAACEIAABCAAAQhAIEYEuB+MkTMwJbUEfBN4ly5dKpWVlVJVVeULrLhcANSO+vp6X8ZEIxDIKoG4nM9Z5c+4IQABCEAAAhCAAAQgAAEIREWA+8GoyNNvlgj4JvAePHhQRo4cKXV1daJib0VFRVkc43IBQOAty40cDAGLQFzOZ9wBAQhAAAIQgAAEIAABCEAAAuES4H4wXN70lk0Cvgm8Bt/27dulX79+cvHFF8ucOXOkefPmnsjG5QKAwOvJfRwEgQYE4nI+4xYIQAACEIAABCAAAQhAAAIQCJcA94Ph8qa3bBLwXeA1GDdv3ixdunTJUa2uri4psjcuFwAE3myeGIzaXwJxOZ/9HRWtQQACEIAABCAAAQhAAAIQgEAxAtwPFiPE+xAon4DvAi8RvOU7hRYgkDYCfKCnzaOMBwIQgAAEIAABCEAAAhCAgDsC3A+640QtCJRDwDeB1+TgffXVV2XZsmXSoUOHcuyKTc5OInjLciMHQ8AiwAc6EwECEIAABCAAAQhAAAIQgEA2CXA/mE2/M+pwCfgm8OrGapWVlVJVVdVoBBrVO2nSJJk/f77rzdficgFA4A13QtJbOgnE5XxOJ11GBQEIQAACEIAABCAAAQhAIL4EuB+Mr2+wLD0EfBN48yGZOnWqTJgwQYYMGVLyhmtxuQAg8KZnsjOS6AjE5XyOjgA9QwACEIAABCAAAQhAAAIQyCYB7gez6XdGHS4B3wXe3bt3y4ABA2TNmjXSsWNHz+ka4nIBQOANd0LSWzoJxOV8TiddRgUBCEAAAhCAAAQgAAEIQCC+BLgfjK9vsCw9BHwTeDVFw8CBA6W6ulr074qKCitqt0ePHp7y8cblAoDAm57JzkiiIxCX8zk6AvQMAQhAAAIQgAAEIAABCEAgmwS4H8ym3xl1uAR8E3g3b94sXbp0QeAN13/0BoFEEOADPRFuwkgIQAACEIAABCAAAQhAAAK+E+B+0HekNAiBRgR8E3hNy6RoYJZBAAJOAnygMycgAAEIQAACEIAABCAAAQhkkwD3g9n0O6MOl4DvAq/dfDZZC9eZ9AaBuBLgAz2unsEuCEAAAhCAAAQgAAEIQAACwRLgfjBYvrQOASUQqMBrEG/fvl0mTZok8+fPt3LzuilxuQCQg9eNt6gDgaYJxOV8xk8QgAAEIAABCEAAAhCAAAQgEC4B7gfD5U1v2SQQisDrBW1cLgAIvF68xzEQaEggLuczfoEABCAAAQhAAAIQgAAEIACBcAlwPxgub3rLJoFQBN6DBw/KrFmzZOjQoUTwZnOeMeqME+ADPeMTgOFDAAIQgAAEIAABCEAAApklwP1gZl3PwEMkgMBbBDYRvCHORrpKLQE+0FPrWgYGAQhAAAIQgAAEIAABCECgSQLcDzJBIBA8gVgLvFdccYX8/ve/D55CgR40b7D+UCAAAQhAAAIQgAAEIAABCEAAAhCAAAQgAAEIxJ1AMxGpN0bW1+f+LNturykaYiHwnjKw7PHTAAQyT+DmMw8jePTdzKMAAAQgAAEIQAACEIAABCAAgUwR4H4wU+5msBERMOeZiJQl8C5dulQGDiwshlZXV4vWqaiocDXSuITwN1v0ntTXnOHKZipBAAL5CcTlfMY/EIAABCAAAQhAAAIQgAAEIBAuAe4Hw+VNb9kkEEqKBi9o43IBQOD14j2OgUBDAnE5n/ELBCAAAQhAAAIQgAAEIAABCIRLgPvBcHnTWzYJIPAW8TsCbzZPDEbtLwE+0P3lSWsQgAAEIAABCEAAAhCAAASSQoD7waR4CjuTTMA3gXf37t0yYMAAWbNmjcWj1JQMTohxuQAg8CZ5emN7XAjE5XyOCw/sgAAEIAABCEAAAhCAAAQgkBUC3A9mxdOMM0oCvgm8ml9Xi4q8WvT/yspKqaqq8jS+uFwAEHg9uY+DINCAQFzOZ9wCAQhAAAIQgAAEIAABCEAAAuES4H4wXN70lk0Cvgq8dkF38+bNUldXlxN8S8UblwsAAm+pnqM+BBoTiMv5jG8gAAEIQAACEIAABCAAAQhAIFwC3A+Gy5veskkAgbeI3xF4s3liMGp/CfCB7i9PWoMABCAAAQhAAAIQgAAEIJAUAtwPJsVT2JlkAr4KvAMHDizIotScvHG5ACDwJnl6Y3tcCMTlfI4LD+yAAAQgAAEIQAACEIAABCCQFQLcD2bF04wzSgK+Cbx+DyIuFwAEXr89S3tZJBCX8zmL7BkzBCAAAQhAAAIQgAAEIACBKAlwPxglffrOCoFUCbwbN24s6Lf6+vqC711xxRUF30PgzcqpwDiDJMAHepB0aRsCEIAABCAAAQhAAAIQgEB8CXA/GF/fYFl6CPgm8C5dulSiTtHw2GOPyemnny6HDh1q8KPirv01+/9ffPGF1NTUIPCmZ04zkhgS4AM9hk7BJAhAAAIQgAAEIAABCEAAAiEQ4H4wBMh0kXkCvgm8fpP0cgFQgVejcdu2bSv//Oc/5R//+EeTvz/99FPZsWOH3HzzzQi8fjuQ9iBgI+DlfAYgBCAAAQhAAAIQgAAEIAABCCSfAPeDyfchI4g/gdAE3nXr1skFF1wgFRUVrqh4uQCowHvllVc2EHibEnk/++wzS+AlgteVS6gEAc8EvJzPnjvjQAhAAAIQgAAEIAABCEAg9gT+/ve/yze/+c3Y24mB5RPIwv0g87n8eUIL5RHwTeDdvXu3DBgwQNasWWNZNGXKFKmtrZXNmzdLly5dZMiQITJnzhxp3ry5K4u9XAAKRfDOmDHDStFwxx13NIjoJYLXlSuoBIGyCXg5n8vulAYgAAEIQAACEIAABCAAgdgS+D//5/9It27dZNy4ca51gtgOBsOaJJCF+0HmMydB1AR8E3g1B68WFXm1TJ06VSZMmFCysGuAeLkA5Ivg1VQNdoHXRPTq60bgJYI36mlI/2kn4OV8TjsTxgcBCEAAAhCAAAQgAIE0EdAAr29/+9ty8sknyw9+8APrp1DRvXBatWolRx99tBWMpfv5/OpXv0oTDsZiI5DE+0HmM1M4aQR8FXgrKyulqqrKYqCCr/3/UsF4uQAQwVsqZepDIBwCXs7ncCyjFwhAAAIQgAAEIAABCEDADwLTpk2TgwcPyvvvv289yXvqqadagV+XXXZZg+Z/8YtfyPTp02Xfvn3yrW99S3QTdARePzwQ3zaSeD/IfI7vfMKy/ARSJ/A6c/ASwcvUh0D0BJL4gR49NSyAAAQgAAEIQAACEIBAcgk88cQT8tOf/lS2bNkinTt3tgYyc+ZMee6556xo3b59+0rPnj1J0ZBcF7u2PA33g8xn1+6mYkQEfBV49Vu3QqW6utqK6g16k7UrrrhC2rVrJ5qKwaRjIAdvRLOLbiHwNYE0fKDjTAhAAAIQgAAEIAABCECgNAIPP/ywpQNs3LhRdu7cKWeeeaa8/fbb0qFDB2FTqtJYJrl2Wu4Hmc9JnoXpt903gddvVF4uAG5y8GpErxF+ycHrt9doDwL5CXg5n2EJAQhAAAIQgAAEIAABCCSfwFVXXWXt1fPqq6/KiSeeaG3ITskWgTTdDzKfszV3kzTa1Am8GsHbtm1bsQu5L730kpW4/eKLL27wuhF4b7755oI+a7boPamvOSNJPsVWCMSOQJo+0GMHF4MgAAEIQAACEIAABCAQYwJr1qyRO++8U/785z/LX//6V2tzNUq2CKTpfpD5nK25m6TRpk7gdebgNdG6+X5/9tlnsmPHDqmpqUHgTdKsxdbEEUjTB3ri4GMwBCAAAQhAAAIQgAAEIibw3e9+V77//e/L888/H7EldB8FgbTdDzKfo5hF9FmMQOoE3nwRvIVEXiJ4i00P3oeAPwTS9oHuDxVagQAEIAABCEAAAhCAQDYIqCD2r//6r7J69epsDJhRNiCQtvtB5jMTPI4EUifwfvTRR64419fXW/U0nQMRvK6QUQkCngmk7QPdMwgOhAAEIAABCEAAAhCAQMYI8Eh7xhyeZ7hpuh9kPjOf40rAN4FXd8YcOHBgwXFWV1dbu2dWVFS4YuHlAqB5d72Ub3zjGwUPIwevF6IcA4GGBLyczzCEAAQgAAEIQAACEIAABJJPgE2pku/DckeQpvtB5nO5s4HjgyLgu8C7ZMkSa4fMcktcLgAIvOV6kuMhIBKX8xlfQAACEIAABCAAAQhAAALhEXj44YetQK+NGzfKzp075cwzz5S3335bOnToIH//+9/lm9/8ZnjG0FNkBNJyP8h8jmwK0bELAr4JvKYvE8lbasSu09a4XAAQeF3MIqpAoAiBuJzPOAoCEIAABCAAAQhAAAIQCIfAE088IT/96U9ly5Yt0rlzZ6vTmTNnynPPPSe/+tWvZPDgwdKtWzcZN26cNG/ePByj6CUSAmm4H2Q+RzJ16LQEAr4LvKbv3bt3W5G8mp/ES1RvXC4ACLwlzCaqQqAAgbiczzgIAhCAAAQgAAEIQAACEAiGwLRp0+TgwYPy/vvvy+bNm+XUU0+VqVOnymWXXdagw1/84hcyffp02bdvn3zrW98S3R9H0z2q6EtJJ4Ek3g8yn9M5F9M8qsAEXjs0jepdvHhx4Dl4g3AUAm8QVGkzawSS+IGeNR8xXghAAAIQgAAEIAABCJRDoLa2Vr797W/LySefLD/4wQ+sn0Lliy++kFatWsnRRx8tupfOoEGDEHjLgR/zY5N4P8h8jvmkwrxGBAITeIngZbZBAAKGQBI/0PEeBCAAAQhAAAIQgAAEIBAcARWAe/bsSYqG4BDHpuUs3A8yn2Mz3TJriO8CLzl4MzuXGDgErMex8pXKykrr5bq6urzvn3baadCDAAQgAAEIQAACEIAABDJEgE3WsuPsLAi8zOfszOe4jtQ3gdcIu17y7eaDE5cLACka4jp1sSuOBPbu3WvtjKsR/G5KRUWFvPvuu9bjWRQIQAACEIAABCAAAQhAAAIQSB+BuOg76SPLiCBwhIDvAm8huNXV1eTgZeZBIAME5s2bJyNGjHA10rlz58rw4cNd1aUSBCAAAQhAAAIQgAAEIAABCCSPAAJv8nyGxckj4JvA6/fQ43IBIILXb8/SXhYIdO7cWV577bUmh3rhhRcWrZMFVowRAhCAAAQgAAEIQAACEIBAmgnERd9JM2PGBgEE3iJzAIGXkwQCpRNYvXq1XHvttU0euGrVKmtTBQoEIAABCEAAAhCAAAQgAAEIpJcAAm96fcvI4kPAV4FX824OGDBA1qxZ02CEmzZtkqqqqpJGHZcLAAJvSW6jMgRyBG644QZZtmxZXiL9+vWTp556CloQgAAEIAABCEAAAhCAAAQgkHICcdF3Uo6Z4WWcgG8CrxF3a2trG4i5hV4vxj0uFwAE3mKe4n0I5Cfw9ttvy7nnnpv3zbfeekvOOecc0EEAAhCAAAQgAAEIQAACEIBAygnERd9JOWaGl3ECvgm8mzdvlrq6OiuC11m2b98uixYtksmTJ0vz5s1dIY/LBQCB15W7qASBvATGjh0rM2bMaPDemDFj5J577oEYBCAAAQhAAAIQgAAEIAABCGSAQFz0nQygZogZJuCbwLt06VKprKzMm4rh4MGDMmvWLBk6dKhUVFS4wh2XCwACryt3UQkCeQl89dVXcuaZZ8qHH35ovX/KKafIu+++K0cffTTEIAABCEAAAhCAAAQgAAEIQCADBOKi72QANUPMMAEE3iLOR+DN8NnB0H0h8Oijj8ott9xitfXII4/IzTff7Eu7NAIBCEAAAhCAAAQgAAEIQAAC8SeAwBt/H2Fh8gkg8CLwJn8Wp2AEe/fuldmzZ8uGDRtky5YtKRhRdoZwySWXSNeuXWXUqFHSqlWr7Aw8hiPlPIqhU1yaxHnkEhTVIAABCEAgR4DP/eROBj73G/uO+cx8Ti4BLI8LAV8F3oEDBxYcV3V1tWgaB1I0xMX12BEXAuvWrZPbbrtNdu7cGReTsMMDgfbt28tDDz0kV199tYejOaRcApxH5RKMx/GcR/HwA1ZAAAIQiDsBPvfj7iF39vG5f5gT89ndfIl7LeZz3D2Ufvt8E3j9RhWXEH5SNPjtWdqzE9AP8+7duwMlRQTWrl2LyBuyPzmPQgYeQnecRyFApgsIQAACCSXA535CHdeE2Vn+3Gc+M5/TR4ARRUXAN4HXuclaU5uuuRksAq8bStRJMgF9DKdTp065yN3WrVtbEaDdunUT/ZsSfwJ79uyR9evXWxHY+rcW/eZ269atpGsIyX2NzyORhxY0k27dmknr40Mygm7KIrDnc5H16+vltqH18vVpxHlUFlEOhgAEIJBeAqyfk+9b1s9HfMg6NgXzmXVs8p2YohEg8BZxJhG8KZrtMRtKbW2tTJs2zbJKBV0VBSsrK2NmJea4IVBXV2eJ9UbkHT9+vEydOtXNodQpk0DD80hk6x+OEk6jMqFGdHhdnUinzodyIi/nUUSOoFsIQAACMSbA+jnGzinRNNbPIqxjS5w0Ma7OOjbGzsmQaQi8CLwZmu7xGmpVVVVuQ7Xly5dLnz594mUg1pREYMWKFdK3b1/rGN04YvPmzSUdT2VvBBqcR081kz7/t5m3hjgqFgRW/L966XtDPedRLLyBERCAAATiR4D1c/x8Uo5FWV8/s44tZ/bE71jWsfHzSdYsQuBF4M3anI/NeO0n3+7du0nLEBvPeDNEo3ftm0jW1x8WqSjBEmhwHv3tKNIyBIs78NY1XUPFdw7l+uE8Chw5HUAAAhBIFAHWz4lyV1Fjs75+Zh1bdIokqgLr2ES5K5XG+irwDhw4sCCk6upq0by8dgGkKaLk4E3lfGNQNgL2kw8RIx1TA5+G78cGzP9xVPgG0KPvBJr9CwKv71BpEAIQgEBKCLDWSokjuSeyCLCOTeF8Zh2bPqcmaES+Cbx+jxmB12+itBc3AixQ4+aR8u3Bp+UzLLUFFsalEot/fQTe+PsICyEAAQhERYC1VlTkg+s3yz5lHRvcvIqqZdaxUZGnX+eXRpq4MPdMcdQRhQi8TNC0E8jyYiatvsWn4XuWhXH4zIPukYVx0ITj0b7JU675BykQCJsA8y9s4v71x1rLP5ZxaSnLPmUdG5dZ6J8drGP9Y0lLpRMggrcIs2aL3pP6mjNKJ8sRECg2t5od2Qwq6i9UcJY/BLK8QPWHYOmtsDAunVncj2BhHHcPlW+fimvXXnut1dCqVasEkbd8prTgngDzzz2rONZkrRVHr5RnU5Z9yjq2vLkTx6NZx8bRK9mxCYG3mAiHwJudsyHkkWZ5MRMy6tC6w6ehoc51xMI4fOZB98jCOGjC0bZvxLW9e/dahrRq1QqRN1qXZKp35l/y3c1aK/k+dI4gyz5lHZvC+UwO3vQ5NUEjQuBF4E3QdE2XqVlezKTLk0dGg0/D9ywL4/CZB90jAm/QhKNr3ymuGUsQeaPzSZZ6Zv6lw9ustdLhR/sosuxT1rEpnM8IvOlzaoJG5LvAu3TpUqmsrGzwuN3Bgwdl1qxZMnToUKmoqHCFhxy8rjBRKcEEol7M6Lk6c+ZMWbZsmXTo0KEByalTp4reCGkdt+dsgl3hm+lR+9S3gSSoIRbGCXKWS1MReF2CSlg1p7h2zNdZivZ/vfsDIm/CHJowc5l/CXNYE+ay1kqPL81IsuxT1rEpnM8IvOlzaoJGFIrAu3v3bhk3bpxMnz7dtViEwJugWYSpnghEvZhR8fa3v/2t/OhHP5IBAwbkxmDO1y+++ELmz5/v+pz1BMF20Pbt22XSpEmh9lmuzc7jo/ap3+NJQnssjJPgpdJsROAtjVcSaucT12YcfdjyMV+JIPImwYvJtZH5l1zf5bOctVa6/KmjybJPWcemcD4j8KbPqQkakW8Cr4pCKhKtWbMm7/CXLFnSQEQqxgiBtxgh3k86gagXMyrw/vWvf5X9+/fL6NGjpXnz5hZS87oKrqV8KZN0f/hhf9Q+9WMMSWuDhXHSPFbcXgTe4oySVKOQuPb9bxwexZ/+icibJH8mzVbmX9I8Vtxe1lrFGSWtRpZ9yjo2abO1uL2sY4szokZwBHwTeI2JupDSUu6OyAi8wTmdluNBIOrFjAq5Wnbu3Cldu3a1zllNpzJx4kTp1auXLF68OCfwqtjbr18/2bZtm3Ts2DGX1kFfX758uXz00UeycOFCq70pU6ZIbW2t9be2N3LkyNx75ose/UJowYIFcvHFF0v37t2tY/r27SuLFi2SyZMny4EDB6z3TzzxRBkyZIjVlh6rZeDAgY360bGY1+32he3pqH0a9njj0B8L4zh4wV8bWBj7yzPK1oqJa8Y2RN4ovZTevpl/6fQta630+TXLPmUdm8L5TARv+pyaoBH5LvD6NXYEXr9I0k5cCUS9mDECr+bM3rBhgyXKqmD7/PPPy+DBg3NpVZSfPcWKPeXKrl27LOH3wQcftARifW/YsGFWqgXN66u5fI14rO2Y/88++2wrol+PMWKw9m0XePX9QYMGWfXMEwL2/+392H2sN3RmPGH7Pmqfhj3eOPTHwjgOXvDXBgRef3lG1ZpbcQ2RNyoPpbtf5l96/ctaK32+zbJPWcemcD4j8KbPqQkaUSACrz2azrCorq4uacMmBN4EzSJM9UQg6sWMEXivueaanID7wgsvWJskqgBrRN133nlHunTp0mCMJkpWXzSirEnxMGfOHOnRo4e0adMmb9oWjcS192k2cXMKvHZR2UQW19TUWMKx83/nNcceRezJOR4PitqnHs1O9GEsjBPtvrzGI/Am36elimuIvMn3eZxGwPyLkzf8t4W1lv9Mo24xyz5lHRv17PO/f9ax/jOlRfcEfBd4vWyols9cBF73TqRmMglEvZgxAq9GyGpkraZLePXVV2Xo0KEWULvAWygi1i7K5hN4C22umO864VXg1ShiTSehwrLaQARvMs8Hr1azMPZKLr7HsTCOr2/cWOZVXEPkdUOXOsUIMP+KEUr++1Gvn5NPMH4jyLJPWcfGbz6WaxHr2HIJcnw5BAIReDV3pn3TJi8GIvB6ocYxSSIQ9WLGLvCaHLv/9m//ZqVMsAuwylRFYH3dmVu7KYHXpGjQ400aBuMfPwXe119/3cojbPpQsTpfn2HMjah9GsYY49YHC+O4eaR8e1gYl88wqhbKFdcQeaPyXDr6Zf6lw4/FRsFaqxih5L2fZZ+yjk3efC1mMevYYoR4P0gCvgu8aqx5RFsFHq8FgdcrOY5LCoGoFzN2gddshqY5bk0uXXv0rX2TNeWrG5/pef7BBx8UTNFgUinYN1kzqR00fYMzutdrBO+pp57aYCM33eztyy+/tF4Lu0Tt07DHG4f+WBjHwQv+2sDC2F+eYbXml7iGyBuWx9LVD/MvXf5sajSstdLn6yz7lHVsCuczOXjT59QEjch3gTdf/l3lQQ7eBM0KTA2FQJYXM6EAjqATfBo+dBbG4TMPukcE3qAJ+9++3+IaIq//Pkpzi8y/NHu38dhYa6XP31n2KevYFM5nBN70OTVBI/Jd4PVr7ETw+kWSduJKIMuLmbj6pFy78Gm5BEs/noVx6czifgQCb9w91NC+oMQ1RN5kzYOorGX+RUU+un5Za0XHPqies+xT1rFBzaro2mUdGx17ehZB4C0yC5otek/qa85grkDAdwJZXsz4DjMmDeLT8B3Bwjh85kH3yMI4aML+tR+0uIbI65+v0tgS8y+NXi0+JtZaxRklrUaWfco6Nmmztbi9rGOLM6JGcAQCEXjzpWkgRUNwTqTlZBLI8mImmR4rbjU+Lc7I7xosjP0mGn17LIyj94EbC8IS1xB53Xgje3WYf9nzuRkxa630+T7LPmUdm8L5TIqG9Dk1QSPyXeDdvXt3bvOkF154QSorK0U3VHrnnXekV69ertGQosE1KiomlECWFzMJdVlRs/FpUUS+V2Bh7DvSyBtE4I3cBUUNCFtcQ+Qt6pJMVWD+ZcrdjQbLWit9/s+yT1nHpnA+I/Cmz6kJGlEgAu+CBQtk9OjRsnLlSkvgveCCC2TWrFkydOhQqaiocIUHgdcVJiolmECWFzNe3TZ16lTp2rWrVFVVeW0i0OPwaaB48zYe1sJ4926RcbX1Mn1qM3H5MRY+jK973LxFpMtlhxr0v+SJXpjSPwAAIABJREFUZlJZ2Szv6wP6N8vVXfpkvcycXS/LnjxKOnRoOISp0+tl82aRpYuDZYDAG9nUcdVxVOIaIq8r96S+EvMv9S4uOkDWWkURJa5Cln1a7jr24EGRiZPrpeYnzXLrNl0H/mz4obxrucRNDh8NDmstzzrWR6fRVMkEfBd4Dx48mBNzNWq3rq5OevfujcBbsms4IO0EsryY8epbrwKvPlkwbNgwmTRpknRwqlZejclzHD71EabLpspdGLvsRsJaFKqI2v50Ebvo6tZGU08X9hteqpfacUeEW33P+breFIwcVS/t2kmurgq8v10l8qNrG9pgxv/FFyLz5yLwluqTtNSPWlxD5E3LTPI2DuafN25pO4q1Vto82nBToPr6+vQNsIkRlbuOdQq827eLTJpSn1urFVtXFns/Tc4Iay2PwJumWZO8sfgu8CqCZ599Vs4++2yLRr9+/WTbtm0yZMgQmTNnjjRv3twVJSJ4XWGiUoIJsEAV0S+EFi9eLIMGDXJ1bfAq8IY1TfBpWKSP9FPuwtitxWEtCt3a01Q9twKvtqHjGjaiXiZNOBz5oQLvX/8qsv9LkdF3NhPzkW1e375DAo9iZmHsxyzwv424iGuIvP77NgktMv+S4KVwbGStFQ7nMHvJsk/LXcfaBV71mV3cDdOHSegrrLU869gkzIb02hiIwOsHLgRePyjSRpwJhLWY0ehVTZty8cUXS/fu3WXKlClSW1srerPUpUsXC5F9E0QVXUeOHCkLFy603rvvvvtk//79VtqVAwcO5HJsm3QrdtHVeeySJUtkwIABlpBrb1P7W7Rokeixpp98XwI5bdSULyoGa4oGHZe2vWbNGstOMy79W79M6ty5s9W+lnnz5sns2bNl+vTprtPEeJk7YfnUi21pPabchbFbLs5F4Zz766VlS5Eh/3E40qRjR8k9CmciYxc+fPi9+2Y1ywmmBw40TvWg0RNdr2wmVZeI2P/WPjp3biZTpx1u5/rrRP76tyPRtvkey9N6pQi8Wt8evaFCrpadf5GcTaafXj9uJouXBJ+mgoWx21kZXr24iWtm5H/6p8iYr0T2fx3w1apVK1m1alVs0/iE57F09cT8S5c/yx0Na61yCcbv+Cz7tNx1rH2NNv/BI1/YGy83ta7UlFsLHjqyBtV1Z/v2h1M+bNsmMuTWZnLbkGZy008PWf9Xd2+WN02Xrh1POEHkNytFXv2fI2m+tO8JEw9/QE+Z3KzB02IDBx+J1N708lFydgexbNm3T2TmrMbHONfWatuc2YcDEbT/L788fLzaqUXb1HW1vTjX8mrfRx+J1Y4WfarNrN01tZnXp+lYx8bvGpMlixB4i3i72aL3pL7mjCzNCcYaEoGwFjNGCFVRVIVdLdu3b7cE1smTJ1uRs/b/NXf2zp07c3WXLl0qr7zyiiWaFhN4nRG25n/tU9O1qCDb8IP2sPis4rEzut+ZVsGMQ8fgzMGrAvLEiROlpqbGSsGg/eoNodquQrR980e3ecC9TIOwfOrFtrQeU+7C2C2XphaFZnGpoqimRdCFpvlb29f/X9l0eAFZisDrzHnrtEEfw1v0WL1Mnngk0lb7c+bgNeLzrt35UzcYUVcXsuZvzddr0jxoP8//rl4GD2oWSh5iFsZuZ2U49eIqrpnRI/KGMw+i6oX5FxX5+PbLWiu+vvFqWZZ9Wu461i582oMNjC+cQQTOvRSc7xvBU9e2dgHU/J8vjVi+/Rvsa0uzFtbf11QfFpXtT4np67rGHTCoXmrHHw54MOO6tMvhlGHOVBL6vxaz7l685MgeEboO1oAEIwAbFmYdPX5sM5l2T72YtvV9O4d8/5cyt1nHlkKLun4TCETgVVFl4MCBDWy1Rwi6GQQRvG4oUSfJBMJazOQTNwudoyr6PvDAAzmhVPnaxd+mBF5Ny2KPqDW+0Sjea665JifuGtH18Id5YYFXb+o2bNiQE5qtD1vbJmvOCN6OHTvKsmXLcgKvfTM2BN4knylN217uwtgtmXwCr4m6PXyeHBZBNdLBudmFXYgtVeC19+FccDoXo2YsfkTw6gLcbCr3wpp6a4M2ja4IY6M5FsZuZ2Xw9eIurhkCiLzBz4UoemD+RUE9/n2GtX6OP4n0WJhln5a7jrU/zaVf5DuFzUJPiZnZ09T7hURaZ2Srs54z2tb0ZaJ4TWSvPco2X/oEs54delvjAAP72nrl04fFXmOXtlVIRNa0ZHv2iAwe1LC+istr1jbM/+w1ipd1bHquTUkcie8Cr19CCgJvEqcTNpdCIKzFTCGB1/ogdETUOiNhSxV4x40b12QaBCPKarsq9GopFMHblMB7wQUXWCkfTLqGfBG8CLylzMb41X3//ffluOOOE33kuqlS7sLY7cjjIvCaBe2IYYejD6ZPbbzhWSkCb74cvGaRrAvwi/8/fdxORBfXWhB43c6YeNRzex7lszYp4hoibzzmWj4rmH+kCylldrqdL2Gtn0uxnbrlEUijTz3N538cVTJIZ7oue2SrNhaVwOsMdsg3MLvQmy+IICiB9z9/3kye/O96qfnJ4f0n/M7Ni8Bb8jTmAB8JBCLwFhJsSrEbgbcUWtRNIoGwFjP5BF6Nyh0xYoTMnTvXini1FxVem0rRMGzYMJk0aZJ1nDNtgsl5a1JBFPKLpnvo0aOHtGnTplFOX3NMUykaNFrYbodzPM5UEX598VRsnoXl02J2pOF9XRh36tTJSr0xfPjwgkOKm8A78o7iKRrsm5o5H0krthBXECb/72d/PZKP1w7IrcBr+q6qOtKOPQpDxeR+/Q/Jv/U+nDfN7wVwIaeyMPbvDHZ7Hjl7TJq4i8jr35zxsyXmHzmhS5lPbucLa61SqCajbhp96mk++yDwmujZQQMb7+2Q78mvICJ4ddbZ05OZDXvzzUZds9bV1VupGzSKdtDAw5G1paZo0LbdRPCaQIVduxpuSOcUxss5c1jHlkOPY8sl4LvAa918fi3eOIWjUoxF4C2FFnWTSCCsxUwhcdO+gZnyM5uUOTdEu+uuuyy8Jl+vPb2Dpl7RH93QTPPiOo81aRN27dqV29DN3pf+rWLshAkTxM0ma/a+7Pbrse3atZO+ffuSoiGJJ0Mem3VhrJvqabnwwgutLxV69uzZqGYcBV7no2l3jT4c/Wpy5eqi12wuoRtWVHcXazM15yZrTaVg+NnwQ7lN3RqJc1vy59p15ubV45yPn9kFXudNAgJv8k4ut+eRfWRJFXfNGEjXEJ95yvwT6ykUNv5zNyfdzpew1s/urD5SS4MN+vXrJ9vMLk+ODYBLba9QfWcQg1/tRtlOXH1aDhNP89kHgVdt1i/oR9xRL3PvbybL/1/+jXzN2IISeK17PNsma/q/2UzNng7BbNym76v4qsVsdGbfmK3YJmt6XCkCb0XF4T0rdCNj3WyuRYuGm6zly2fsdj4g8LolRb0gCPgi8Ob7QHMaSw7eINxHm0kmkJTFjHNDtiQzD9r2pPg0aA5+tG9fGJv29MZJI3rPOeecXBdhCbzljKnQZmhe2/S7Pa92BHUcC2P/yLo9j0yPSRd3zTgQef2bQ+W0xPw7TA+R190scjtf4rjW0mvnz372s9xeEO5G7K0WAq83bmEf5Wk+exB4wx5XUP2FFUQQlP32dlnHhkGZPgoR8EXgDQIvEbxBUKXNOBGI4wI1Hx8EXvezJik+dT+i6GrmWxgba8aMGWMJvUcffbRkUeB17iQcnZeC6ZmFsX9c3Z5H2mNaxF1EXv/mT7ktMf9E9n+9Zw8ib/HZ5Ha+xG2tlW//iuKjPVJD19nvvPOO9OrVy9VhbgXeRx55RHr37i0VGqoY8xI3n/qBy9N8RuDNu7eEH/4Isw3WsWHSpi8ngUAE3v/93/+V7373u7m+9IPvwIEDJX3AIPAyWdNOICmLGQRe9zMxKT51P6Loaja1MFarTjnlFEvkveWWW3JG1sd0YexXxK1J7WB/ZC06DwXXMwtj/9i6PY80Kv7aa6+VvXv3Wp0f00xkxtEi3/+Gf7ZE0RKRvFFQP9In809kzFeIvG5nodv50uBzv77hrvdu+/Kzntt1sj21mHmyVVOY2dM6LFmypNEGyM7jNH2V2WTY+RStOd6kP9NxltKXn1xKaSuN62dP8zmm69hSfOm1LhG8XslxHAQaEvBd4M2X71MF3lmzZsnQoUNdi7wIvEzVtBNI42Im7T4rNj67T4vV5X3/CcRV4PV/pOlu0S7wpnuk8Rndv/zLv8g//vGPVIm7hq5T5D3qqKPk0KFD8YGPJcL8YxJ4JVAfA4FXBdjFixdbe9A0b948twHxmjVrcvtLfPDBB7Jo0aLcfhZ2UfiPf/yj1NXVNRJ2lUlTGw7r3hf2Yr8Hb9GiRZP33mFtPuzWr6yfD5NiHet2xsS7HoEK8fZP2q0LROBdsGCBjB492vqQ04LAm/ZpxPi8EEDg9UIt3sewQI3WPyyMo+XvV+8IvH6RdN8OApt7VtT0nwDzz3+mWWkxDgJvoQhe++srV66UgQMHNnCLiazV9AyFBF4Vjzds2CC1tbW5Y+0pGpwRvKbNfAJvobpxSOHA+hmBN03XLATeNHkzeWPxXeDNl4fI7aMrdnxE8CZvMmFxaQQQeEvjlYTa+NQ/L/Fom38sk9YSC2P/POb2PCJFg3/MaekIAeYfKRpKOR/czpe4pWhwRtmaMTsFXn19wIABjZCoiOtF4D377LNl2LBhMmnSJOnQoYMV7Ttu3DiZPn26OAXefJHApm7cBN44iPalzNtCdT3N5wynaPCDeVzaYB0bF09k0w7fBV7F6PyGsGPHjiXvKorAm80JmaVR+y0G6pcrI0eOtBCax8QMT13Y6aJSH+eyRwGUy9vtRg/l9mOON2NcuHBhrkkTrWBfoC5durRBpISzjr7/yiuvNOJUrp1++7Rce5J8PJtT5PeebrDW9cpmUnVJkr3btO0sjP3zrdvzSHtkkzX/uNPSYQLMP/LvlnIuuJ0vcVxr6bpy5syZDe537QKvpmgYMWKEzJ071xJj7SVflK59/e4UcXU9r2v5Nm3aWOLu/PnzrRSI2o6uy9UWFXh1n4KamhqrP7WlUF0E3lJmqfu6nuZzAgRe3Q9Cy4D+zdzDCKhmXPP2so4NyOE064pAIAKvq56LVELg9YMibcSZgN8LVBM9r4vIyZMnN1hA6qJv3rx5ct555yVe4LUvWNW/upDduXNnblz6v+ZC09/5Fq0mZcy+fftyC1+/5onfPvXLriS2k29hrBuRqP812tCUBswTsDB26wsVctuf3ngBXYrAq4vwnX8RqR1X/iLcz7aKMWBhXIyQ+/fdnkemxbSIvGyu5n6OBFmT+XeYbqtWrWTVqlXWl+yUwgTczpe4rrXsm6GZUQ4ZMiQXTOB8f8qUKdba1QRhaM5eN5usadBC586drflkD2i466675Nhjj83teWPeM0EOL7zwQi74wVk36nkZV5+Ww8XTfE7AOhaBt/isYB1bnBE1giPgu8CrH1LOHLxezEfg9UKNY5JEwO/FjBF4zzzzTGnZsmXuMTD765999tn/3975x9h1VHm+DCuhDliEaW/+yShxTDT2DFqZdTIRwm1CghJnTWattcCNsJ048sw6ahzveOn8AY1/xdOgkZvpkeNt8DLeJNhGOIBXFmDZiTAJcZhsJmTplWbGliDpRJM/hrXZzITE4o+hd85t6qX6+r737n2v7r1V536eZLn7vbpV53zOedV1v6/eqeAFXrFXBFo5IdjW8bZx7VYCRsRtd4dCVj7ILoZTp04li+N2X4nrNY98x7RXOzRc5y6M//AP/zARdj/+8Y9f4ZpWgbddDIsIvG4f/7p5x5y/MGvW/sf+xd6y84uFsT/Ced9H7oixi7yIu/7yp9+eyD/E3SI5lDdfWGsVoRpHW40x7SmfEXgLJSw7eAvhonFDCCDwdgn0gsM/N7Nb3t+QdMDNKgn4XsxY8XPt2rWJQCo1uGQHq/2K2B133GGee+65lsDrllJxy6hYAfSaa65JPum3uwnka1+7du1KENkdCRMTE8nv9nm3H3dHgrSxOxXkZykhISK09CMPe911112XlJmwJRjcnQ/SLkvglR0K8pCvrHX6mpuNrS0rIbXLfHwY5eaM75hWmY+hjSUL45tuuikRdh944IG25pUh8F6+bMyOz86aQ/997mtoq+9cYI4dWWAGB4159sfGDH3kN1c8LzsaNt4z114e5370DrNsqTFjO2fN+L65a+XhCrSyMN2wadaceWLuuof2Lmjttm0n5LrPiy2feeA35vg33mFe+MmsueYaY75zwpjn/tds6znp9+abFpjhT//GTE/P2XD06wuSr9Z18qVdX3JdJ7t95BECrw+Kc33kfR+lR4xV5NUu7mbV+rSli1atWpVZ39NfNhXvifyrd+dueh3mRvDcuXPB7SjOmy+stYq/F0O/QmNMe8rnwARe2Rzgrh9lbTszM2um/48xTzw521pXyvO2dJi7Hl6+3CTrUalKIn09/u1Z89prprW+tuteWVdOfXXWvPGGMfsn5tbEW//zAjP55QVmYEDu/+avy+06FoE39Hc29tVBwLvAK050Khaf10l28OYlRbtYCfhezLji5+OPP25uv/321te3Fi9enGCyJ/G6BzGICOz+fvHiRSNfhZevb9nDINJlECxzEUtfe+211tfP2rVLC7Odruv0LYCsGryucNxufGtv2m/fNYR9xzTW3PZhtyyM3/ve9yZfbe30KEPgFeFTFrDp+mKyOD38yKzZu3tuwWl//y8PLDD/49FZM/pf555/O986C7yuX7J43b131my5b0GyEO4m8Ip9z5wzrcWvLKj3f3lO2LXl/dyv0aV9aueL+Hbif3buq5PdPmKPwOuD4lwfed9HWSPGJvJqF3dtjNIfZMrv8qFuuva+vyzqvSfyL5yyDHk+AO890n6uzJsvrLX88A6pF40x7SmfAxJ4RTzdtn3W7Nk1ty61D1lbHjlq5m18OHJ0trUedfNK1p5nfzibbF6wYvF/e3hODHb7/9dy0smGh00b50qTWUF308a5MyfSa2L7e9ZGihDymnVsCFForg3eBd704UYWbdZBSHlu2us+SZMdvM19c5Ttue/FjCuiikgrYu7o6KiRXbYjIyPm/PnzLYE3q06Y3UUrfh8+fDip4yslErJ2zVo2aYHU7v6VXbjpnSPu7t5u17XbWZtli3tz++KLL7Z8bCdYDA0NzXvJFYj7jbnvmPZrTxOuL0PgtTtUhZ/duZv8nNqlK8/Z3b2y82DX7tlk567dxZC1s6DTDl53p0Mngfdv/1a+9vu2uGttk/9dUbqTwNvJl9NnrjxAw+0rvYPXtdtHzrEw9kHRTx+xiLxNEXclqu7fQfutFylppLG+K/nn530svcQg8Ob1lrVWXlLxtGtyTMtYx/qIvCvOuv2la/Da3bd2k0N6fWl36aY3Fkifk385a9b8hwVGBN70N96kn8WLFyTfhnO/7WZtkV28d61ecMV1Pnzvtw/Wsf0S5Pp+CHgXePsxxr2WHby+SNJPqAR8L2bcmz45WXdsbCypY/v8888nZQ/cxX2nhb576m+vAu/999+fjGlvOrN28NodxhKftDBcROB1v7IqfXWqwSs7nNasWdM6gC69o7ffXPEd037tacL1ZS6M00JvlvCZZizCrBV6O5VoWPHv575uZncnFNnBK4ev2YcVdLMOvegm8EofWacgd+pr3X9a0NFuHznHwtgHRX99hC6yNUnctVG1f8Pl76j9Zo6/iIfVE/nnJx4IvH440ks5BJq8fi5zHdtPtHoReF/838a4u3nTO3jdb8GJbXkF3rT4a/2iREM/EeZarQRKEXjd3YFS40nEJndHYB6YCLx5KNEmZgK+FzNpEdXuprd11tzFvd1dK6f3pnf9pAVeYdypREOWUHvPPfeYbdu2JWLr0qVLEwF3+/bt5sCBA8nv3Xbwijhtawi7MW63g1f6Exul3ES6/IO9Pssvec1nmQbfMY05v6uyvYqFsV2Aik/b/3TWHPjL+V9XS/tqyyHIzgL3621WMN75hbkdCe5rsrPB7btbiYa0QJxH4LVfkxN70+O5PnTqK+1Tp356zQEE3l7JlXddqCJbE8VdibItVyR19Y8fP9760LK8DKi3Z/Kvf/4IvP0zpIfyCDR5/VzFOraXyHUq0SD92Q0C7g5eKfH10stm3nkS0taWaOhF4LUlGmw/ri8IvL1Elmu0E/Au8Mqi034l/PTp00Zqf65YsaL1nAgweR4IvHko0SZmAr4XM2nxUwRNdzdrenHvHrImHO2BZq+++mrmBzLtDllrtxPX/aBH+r722mvN+vXruwq8VnSVg9uyDllzD2GTtm7pB5sPrq3ynJRhWLJkSfKyrSts2/qsX+g7pjHnd1W2l7Ewdg8fS/LHOfws67WR+xfM+/qYeyib+1U1eX71ncbccstcTTG3LzlM4tprjVn/iXw1eG39MvnamgjGUpPXXXDLz+3KKmQdsub6mUcstgfNpe32EXcEXh8U/fcRmsjWVHHX/dulffeum8XkX3/vaQTe/vhxdbkEmrx+LmMd6yta7Q5Zc9ebrsArz7uHFB/6ygLz5pvG7PjTuRq8vQq86UPWbGmwrNIOvnzvpx/Wsf3Q49p+CXgXeN0Dkk6cOIHA22+EuF4tgSYvZrQGlZhWH9mQF8bV09AxIgvjcOMYisjWdHFXMkSTYJc348m/vKSubKcpX1hr9Z4HoV7Z5Jiyjg01K3u3i3Vs7+y4sn8C3gVedxfhCy+8kAi8lGjoP1D0oI9Akxcz+qI55xExrT6yLIyrZ172iCyMyybcX/91i2yIu3Px0yTYFclI8q8IrbfbasoX1lq95UDIVzU5pqxjQ87M3mxjHdsbN67yQ8C7wCtmpb/6nfUV6m7mU6KhGyFej51Akxczsceunf3EtPrIsjCunnnZI7IwLptw//3XJbIh7uoU7IpmJPlXlJiuDwRYaxWPf+hXNDmmrGNDz87i9rGOLc6MK/wRKEXg9WEeAq8PivQRMoEmL2ZCjks/thHTfuj1di0L4964hXwVC+OQozNfYLz77rvN66+/njz5ngXGfOldxvy7d5ZjP+JuOVxj7bVqkZf8CydTWGuFEwtfljQ5pqxjfWVROP2wjg0nFk20BIG3S9QXHP65md3y/ibmBj6XTKDJi5mS0dbWPTGtHj0L4+qZlz0iC+OyCfvrvyqRDXHNX8w09UT+aYpmfl9Ya+VnFUvLJseUdWwsWZrfTtax+VnR0j8BbwLvsWPHzMaNG9tauHr1aiNtBgcHc3nBDt5cmGgUMYHYFzNSb3vHjh1m1apVZsOGDRFHwp/pscfUH4nqemJhXB3rqkZiYVwVaT/jlC2yIe76iZPWXsg/rZFt7xdrLX0xb3JMWccqzOd/85uWU7Ozs/ocxKOgCXgXeI8ePepF7EHgDTpvMM4DgdgXM1Jr+/Dhw2bhwoVmdHTUDAwMeKASdxexxzRG+iyMY4xaZ5sReOOLaVkiG+JufLlQh8XkXx3U6xuTtVZ97MsauckxZR1bVlbV1y/r2PrYM/L8Q98XGGNaHzH0+mmD3clbdMduOhgIvKSndgKxL2bkvb548WLz/PPPmzVr1pilS5dqD1lX/2KPaVcHA2zAwjjAoPRpEgvjPgHWdLlvkQ1xt6ZARjos+Rdp4Howm7VWD9ACv6TJMWUdG3hy9mAe69geoHGJNwLedvCmLbp06VKyk/fMmTOml129CLzeYkxHgRKIeTEj7++xsTEzPj5uzp8/b2ZmZlo790X4ffPNN83U1JSZnp42y5cvN8ePH08EYLlOnn/jjTfM/v37k8g89NBDZufOncnP6VIv586dMytXrgw0gleaFXNMo4GcMpSFcayRa283C+N4Y+pLZEPcjTcH6rSc/KuTfnVjs9aqjnVVIzU5pqxjq8qy6sZhHVsda0bqrEd42cGbBVlEmyNHjlCDlwyEgEMg5sWM3ESdPXs2EWZdsVdqbMv7/ZlnnjGTk5NJ2QZpu2/fvuR5ecgHP3KdCLduHd+77rorEX9jLvcQc0xjfXOyMI41cgi8+iI351G/IhvirtbMqMYv8q8aznWOwlqrTvrljN3kmLKOLSen6uwVgbdO+ozNDt4uObDg8M/N7Jb3kykQ8E4g5sWMCLa7du2ax8TutnWFXGkgIu7u3bvNli1bzKJFi1o7f+2Bi65YbPuNbeeuBRFzTL0neEUdsjCuCHSFw7AwrhB2SUP1KrIh7pYUkIZ1S/7pDjhrLX3xbXJMWccqzGcOWdMX1Ig88i7wUoM3ouhjaq0EYl3M2DIL7k5bV6TtR+C1AYlV6I01prW+EfocnIVxnwADvByBN8Cg9GBSUZENcbcHyFzSlgD5pzc5WGvpi22TY8o6VmE+I/DqC2pEHnkTeK2w20u93Sxe1OCNKIswtScCsS5m0gKuOO+WaTh9+vS8kixZJRo2bdqUlGpwSzTI7+5DrnNr+/YEueKLYo1pxZi8DsfC2CvOIDpD4A0iDF6MyCuyIe56wU0nKQLkn86UYK2lL65NjinrWIX5jMCrL6gReeRd4G3n++rVq6nBG1FiYGr5BGJczLjlFuTQNPchu26XLFmSPCWHqz3xxBOZh6zJ4WzyOHToUPK/PWTNPZhRni86Z5Qfse4jxBjT7l6F3YKFcdjx6cU6BN5eqIV7TTeRDXE33NhpsIz80xDF+T6w1iKmmgiwjtUUzTlfWMfqi2lMHnkTeH07zQ5e30TpLzQCWheoWTt8Lfv0gWyhxaRfe7TGtF8uZV7PwrhMuvX0zcK4Hu5ljtpOZJMxP/drY341Ozf61Vdfbb73ve8lh3DygIAvAuSfL5Jh9MNaK4w4+LSiyTFlHeszk8Loi3VsGHFoqhUIvF0izyFrTX1rlO+31sUMAu9c7szO/laxKD+VGj0CC2N94WdhrC+m4lGWyCbPI+7qjHdoXpF/oUWkd3u0rp97JxL/lU2OKeuB7cBTAAAgAElEQVTY+PM37QHrWH0xjckjBF4E3pjyVZWtWhczCLwIvFW+UVkYV0m7mrFYGFfDuY5R0iKbtYGdu3VEo3ljkn86Yq51/awjOr150eSYso7tLWdCvop1bMjR0W8bAi8Cr/4sD9TDJi9mAg1J32YR074RFu6AhXFhZMFfwMI4+BD1ZWBaZEPc7QsnFxckQP4VBBZgc9ZaAQalT5OaHFPWsX0mT4CXs44NMCgNMgmBF4G3QekelqtNXsyEFQl/1hBTfyzz9sTCOC+peNqxMI4nVr1aKiLb0NBQcvm5c+eoudsrSK7riYDk30c+8pHk2h/96EfkX08U67uItVZ97MsauckxZR1bVlbV1y/r2PrYM7IxpQi88hXtjRs3zuO7evVqI88PDg7m4m4Nq7uOJTV4c4WLRj0QaPJipgdcUVxCTKsPEwvj6pmXPSIL47IJh9F/KOu8MGhgRdUEyL+qifsbj7WWP5ah9NTkmLKODSUL/dnBOtYfS3oqTsC7wHvp0iUzNjZmxsfHzenTp83ixYvNokWLzPnz583atWtzWxjKwguBN3fIaFiQQJMXMwVRRdOcmFYfKhbG1TMve0QWxmUTDqP/UNZ5YdDAiqoJkH9VE/c3HmstfyxD6anJMWUdG0oW+rODdaw/lvRUnEApAu/U1JQZHR01J06cSATeFStWmImJCTMyMsIO3uIx4gqlBJq8mFEa0nlfiaj72wdaGaf9YmGsL9IsjPXFNMsjBLZmxDlUL8m/UCPT3S7Wz90ZxdaiyTFlHRtbtna3l3Vsd0a0KI+Ad4H38uXLLTFXdu3OzMyYdevWIfCWF0N6jpSA++aTne+/8zu/E6knmC0EfvnLX877AAuBt5q8mPc++r/vML/zvmrGZZRyCPzy/xkz+G9/0+qc91E5nEPoFYEthCg01wbyL97Ys36ON3ZZljd9/cw6Vlk+s47VFdAIvfEu8AqDkydPmmXLliU4hoeHzfT0tNm6dauZnJw0AwMDuTCFsvCiREOucNGoBwIrV640P/7xj5MrH3/8cfPJT36yh164JBQC3/rWt8z69esTcz784Q8bOcSFR/kE5r2PvrnAfPITC8oflBFKI/Ctb8+a9Z+a5X1UGuFwOg5lnRcOESypkgD5VyVtv2OxfvbLs+7emr5+Zh1bdwb6HZ91rF+e9FacQCkCb3EzrrwilIUXAq+PaNJHFoGdO3eaP/uzP0tekt27P/nJT5KSJjziIyDfVLjpppuSXbzy+MIXvmD27dsXnyMRWjz/fWTMT55/h+FtFGEgjTEzM8bcdMtvzG/fRryP4gxjbqtDWeflNpiGqgiQf/GGk/VzvLFLW8762RjWsZrymXWsnmjG64l3gffYsWOJSCWfRtmHW7ZhcHAwF61QFl4IvLnCRaMeCLz++uuJKPjSSy+1RN6vfvWr5mMf+xjlGnrgWcclIuj+4Ac/MPfff39L3F2yZEki1l999dV1mNS4Ma98Hxnz1akF5mMfW0C5hkiyQcoy/OAHs+b+kdmWuMv7KJLg9WFmKOu8Plzg0ogJkH/xBo/1c7yxs5azfn47hqxjFeQz69j4g6jIg0oEXqkvOjY2ZsbHxzlkTVHy4Er/BJ588klz55139t8RPQRD4IknnjB33HFHMPY0wRDeR/qizPtIX0zTHiGw6Y9xyB6SfyFHp7tt/N3vzii2Fk3+u08+x5at3e1tcj53p0OLMgl4E3hFxN2wYYM5c+ZMpr1Hjx5NXs/7CGXhxQ7evBGjXa8E5I+67AC1O3l77Yfr6iUgOw5lBzbibj1x4H1UD3ffo/I+8k003P5CWeeFSwjLyiRA/pVJt5q++btfDeeyR+Hv/hxh8rnsTKumf/K5Gs6M0p6AN4HXDmEPFnJLNPQSgFAWXgi8vUSPa4oSkK/nfPnLXzZnz55tHbxWtA/a10NADlS7/fbbzWc/+1nKMtQTgtaovI9qDkAfw/M+6gNepJeGss6LFB9m90mA/OsTYCCX83c/kED0YAZ/96+ERj73kEiBXEI+BxIIzDDeBV5fTENZeCHw+ooo/UAAAhCAAAQgAIE5AqGs84hHMwmQf82Me2xek6exRQx72xG49957zde//vXkZfn50UcfBRYEIFACgVIEXjlobePGjfPMXb16tZHnOWSthCjSJQQgAAEIQAACEIiIAMJFRMFSaCr5pzCoCl165ZVXEq+uv/56hd7hUlMIvPHGG+Z973uf+Zd/+ZfE5Xe+851Gdiu/5z3vaQoC/IRAZQS8C7zugWqnT582ixcvNosWLTLnz583a9euze1YKAsvdvDmDhkNIQABCEAAAhDoQiDrzIKtW7eaL37xi+bzn/+8OXToUKuH9Ifj9lopg7Vz5855I124cMEMDw+bBx98sOuZB5cvXza7d+82W7ZsMUuXLq0lZnnXeeLX4cOHzd69e83AwECmreLPjh07ktcmJyfntevErBbHAxy0Dn779u1Lyhv1W9KtV5x586/X/kO9Tup8rlixIveGm1D9wC4IQCAeAlK+4K//+q/nGSzP2dKe8XiCpRAIn0ApAu/U1JQZHR01J06cSAReWUhMTEyYkZGR3AuKUBZeCLzhJzEWQgACEIAABGIh4H4Q7n6rKUt0lZufz3zmM+b48eOJEGuv/ad/+idz8ODBeWsq+ZbUd7/7XfNHf/RHhQRe+RB+27ZtZs+ePckH8vbnsoXfvOs8V+B96623Mu2z7F599dVECHZtF4YPP/yw+cAHPnCFKB5LzpRtZx38EHjLjuqV/Uuc5WT3IhtuqreSEV0Cch8tj5mZGcBAIEoC3//+983dd9+dabu8tmbNmij9wmgIhErAu8Ariwcr5squXfmDtG7dOgTeUDMAuyAAAQhAAAIQqIxAEYFXjBLh9qWXXkrESXutCJi33HJLa/ej+/w111xTSOAtW8jNAiui69DQUPLS7OxsR/Z5d/DKjuQbb7zRvPvd7275b4VLef4f//EfaxF4fR0+XGaCupyq4leGwCu5kvcbg3k/YCiTe9V9Cx+J9Qc/+MGqh2a8Hgk0MU97RMVlgRKQ8iLy4WvW47rrrjO2DEmg5mMWBKIj4F3gFQInT540y5YtS2DI1wWnp6eNfP0w/bW5TrRC+YPGDt7ochqDIQABCEAAAsESKCrwiigju2tlx648xsbGzKZNm5K1li1bICLi2bNnzZIlS5I2GzZsuMJ/93yET33qU+a9731vUtZAdu1Kn+Pj463+5WfZXSzrNhH8ZA0nj+XLl7d2E0t/b775ppFvbck6z30tLcq6u5MvXrzYEnelz3Pnzs37mr4tF2BLVUjJCXmIr7KD19qatftZdiYeOXIk8UVet3bccccd5rnnnmsJvC6LtN123WoB2vWr/C68rF1Hjx5NOEs8hYHUGNy/f39ymb3mxRdfvMJXWR/LdWfOnEnaPvTQQ7UIz26C2Pjk5ecK9G4ZEeEqHzB85zvfSXjbneci5u7atWseG9kMIg/7vBuHdBkTl1G7nHTvOeRnGx/XT1vGRPLVPuwHDK5P1hYRH9yYWzvS/bhjiX3yPpQPHOz9z/333282b96c/J4uu+KySfspH+LI6/IQtvLecfPTvnfaxSM9Cfz0pz9NypfU8aFOsBNy4IZRgzfwAGFeRwKydpG/3Z0eMldKOx4QgIAfAqUIvD5MQ+D1QZE+IAABCEAAAhAIiUBWDV4RiOTbTll1cV1BWPwQgfMLX/iCOXDgQKuGrohK8jXHF154IXE1LfC6IrEVPrdv35700UngFXHptddea31A7+4mlp+feeaZ1msiMkl7K0S5dXPT5SdcgTW9g9cdwwpbdpxuAq/UFH788cdbtV2lL/sVZxHA03WLpX8rjstr7q5SK9xKyTERxdI7Tu3vVrAV0V24W4Fafpf6staGrFqzIdRCFgauHd34pcV793cpzSYitxV2bfzsDnT3fdgpt9x2aUadrpNYyjcHsz7gSH+wYu8zRDSVf/ZDFPeDAxlLxFq3P+nHLWNi38+SPxLjtH1Zv9s+JTfc96v7u1wn/tgDqtPjWkad4pGuWS0fCt15551ta1mHNE9iCwQgED8BOURNPgju9JAPkX/1q1/F7yweQCAQAgi8XQLBDt5AMhUzIAABCEAAAgoI+NjBKztU5SBbedx1113JDlJ79kGWwJsWklzRrJvA6x6EJWLSqVOnkl2NnfoUG3oReLMEz3QN3k47eEXgFbFOxFzh4ZYMcwVeV2AWW+3OybTA6+5sdnfd2jQUYV74p21yRd20wJsW+N2dq3Wld3qHdSd+aXZis92VanPSCqKdBOy0YO7mVidGna7rJPC6u1xdzlLSIeuDkXbvU/cDAdtPWph13zPtRFz5QMfdHWz7yspFeS1rXHm+UzxcsVr8kR3lspudRzwEqMEbT6ywdD6BT37yk+bb3/52Liyf+MQnzLe+9a1cbWkEAQh0JuBV4M3alSLDp79+lyco7ODNQ4k2EIAABCAAAQjERKCowJtVg1cEXhEyRUQVweYXv/hFssswLSZlCVDynGaB1wrWsoP2+eefT0Q0VxyTn6WMgy0b5r6W/uq9Xb+2i5mwzHqtncCb3t0b4g7ebvza5ZgVG+X/fgReKWcgMbM7oLN28Lb70KGbwOuK/O59RpZPVQi8WTv27Xs2LWR3Enhd5u3mQsozxPRX4m1bQ7kfjpMeVtdFQEqL3HDDDV1r7Fv7JM9ffvllI/V6eUAAAv0R8Cbwpr+iZM1q93w3s0P5g8YO3m6R4nUIQAACEIAABPISKCLwivDkfuU9fa2IQFLv1H4lvp341k+Jhk47eEUotV8hT5docL/yLuPbkhBS/7PMEg1u/26NUivupUtA2Bqn8hX7TgKh286NdR6B1wpw6a/Zp7nkzSHf7dqV0Mji18nmrPxL824nYNodvPfcc8+8Egjp8brt4G1XiiN9P+LeZ6TfH66NvZRoyLOD134g45Y5ceOa9rNTiQb3vdUuNyjP4PtdU01/1OCthjOj+CXw4x//OLNDW6rIHj6abvThD3/YryH0BoEGEvAm8HZaFOc5ATnNHoG3gdmIyxCAAAQgAAHlBDoJvOmvbKcPZEpfm96N2m135caNGxO6cgjYtddea9avX9+1Bm8ngVcOjXriiSeuOGRNxkgfrGXHEwFW1oX2MN5uh6z9xV/8RVKfT0ou5KnBa/t3BWZ392P6EDc5NE1qBAr7TqUB0tfZ0gpuiQv7lXh3B6+7K1h8lcfQ0NAVcajz4Ku0wJsWPNO7R9PlDmxZgXb51+6QtU47cdsxylvaIe8ha5JTUqvW1yFrafs61dlNv0/kd/t+SPcjr7XbYd4uHnYqpTyD8j8quAeBSAiEou9EggszIdATAW8Cb7dDJGwdNLceVCeLQ5kA2MHbU15xEQQgAAEIQAACigl0EpPzuB3KOs/amrWLs93X4vP4R5uwCYSWf2HTwrq6CFCDty7yjFsGAebdMqjSJwTmE0Dg7ZIRCLy8ZSAAAQhAAAIQgMB8AhoFXvdgOPG2Xx/JmXAJIDSEGxsse5sAeUo2aCJAPmuKJr6ESgCBF4E31NzELghAAAIQgAAEAiXQr/gZ4o2eW0pAsNvSA4GGALP6IBBi/vXhDpcqJUANXqWBbahbzLsNDTxuV0rAq8Bra7tleZCuI9fNy1AmAHbwdosUr0MAAhCAAAQgAIFiBEJZ5xWzmtZaCJB/WiKJHxCAQCwEmHdjiRR2xkzAm8DrG0IoEwACr+/I0h8EIAABCEAAAk0nEMo6r+lxaKr/5F9TIx+X39TgjSteWNuZAPMuGQKB8gkg8HZhjMBbfhIyAgQgAAEIQAACzSLAjV418b58+bLZsWOHWbVqldmwYUM1g9Y0ypNPPmlWrFhh3AOd5aC8oaGhlkVbt241k5OT5qqrrkqem52dvcLaS5cumbGxMTM+Pj6vr5rcMlXZ47KiPEld0Z4/LvNkGHHACj8EyGc/HOkFAp0IIPAi8PIOgQAEIAABCEAAApUS4EavGtwXLlwwcnjcwoULzejoqBkYGKhm4IpHESH7iSeeMGvXrm2NLL7v2bPHHDx48AqhtlP+VSWo5kVUhT3C78iRI2bTpk2JWfKhgPy8cuXKvGbSrgQC1OAtASpd1kaAv/u1oWfgBhFA4EXgbVC64yoEIAABCEAAAiEQ4EavmijIYXjyNe/nn3/erFmzxixdurSagbuMIrtF5eFLQBQxV0TKD37wg62RZQwRLWXHblrYRuA1xo2BsJuYmDAjIyOJGG7zxld8gkg6jIAABGolwN/9WvEzeEMIeBd4ZUHwzDPPZC6mijANZQKgREORqNEWAhCAAAQgAAEIdCcQyjqvu6XxtnB3fp4/f97MzMy0yjTY0g2HDh1qObh8+XJz/Phxc+rUKXPLLbeYffv2Ja/J2l5KGsiuTtv+6NGjrb6k3a5du+aBOnfunFm2bFnS5syZM8lr9mv/6bIJ0laERLcf93BmEW/FpmuuucbIgc7u2HbQn/70p4mI6wrY4r+MLztR0+UpbP699dZbyXXCY/fu3WbLli1m0aJFSYkGeVh/3ZIFwuM973mP+cpXvpL4JrYeOHDAbN++PfndcrS2uH65/Yjw3I2ztBfRNW2PLTUhtguf4eFhMz09ndhs+Yj/U1NT5o033jD79+9PXrPXvfjii/NKV9gYSJu02BvvOyB+y6nBG38M8eBtAvzdJxsgUD4B7wKvmOwuNLIWYXncCmUCQODNEy3aQAACEIAABCAAgfwEQlnn5bc4vpYipJ49e9bs3Lnzijqu7mvimYiNdoevCJLyugiZtp6tPHf77be3dtza30UMlRIQe/fuTYTSdjs/XQFVhM90O/n9pZdeSmyVh7th5NVXX00EzAcffLBtHeGTJ0+aO++8M7MEhRVYXXG1m8ArgrDYYnewSh9LlixJxhfbZGew5ZP1u/VFXpOHFZjd39txtuPYjEsL1Vaczyqh4Ir6dlwrcKevaxcr37ur43vnhGMx82Q4scCS/gmQz/0zpAcIdCNQisDrDiqLB/m0Pf1pdl7Dsg4/6Hatz9cReH3SpC8IQAACEIAABCBgDDd65WdBu521IlqmBV5XwE2LuVZgtDtxreWyiePmm2++QuC1wmL6OvdewBUX0+KvXO8KlRcvXpw3RpqctJUdqXfccUdHqK5obA9Z67SD1z1kzeWVFm3TLO3vUvPY3fVsjbNCcxbnrMPdsmrwuvzSO3jt7mcZL92fe12WwJtVy7j8TGWEdgSowUtuaCLA331N0cSXUAmULvDaxaV86v7P//zP5rnnnku+/tWtBlgoEwACb6ipi10QgAAEIAABCMRKIJR1Xqz8utltv57vHqzmCpHpEg3u7ta8wqO1wRWSbQkAec09qKvTDt5+Bd6s8gxZfFyhVHYey6NsgdeWfci678nLuZPAK2Uwtm3blhwmJ2Okd/AWFXjlevn3e7/3e91SjNchAAEIFCLA3/1CuGgMgZ4IlCLwup8kuzWdxEJ7mq/9Klc7q0OZABB4e8orLoIABCAAAQhAAAJtCYSyztMaovQuU/EzLf5JfVZXAHYFW7ccgzxv6/HaEgq2bbt6rTKWKzzK+l9q1EqtWluiQfpwSxd0KtHgloFIx6xTeQa3rXvomt3BK7uDpQyFa5+Iv27tXiuGr1q1qlWiwbW93Q5eYdXpbJK0wGs5Z5VoaCfUiq0i7h48eDDxQ2yRfm38uwm8rh82R4RN+lA6re+T0P2iBm/oEcK+IgT4u1+EFm0h0BsB7wJvt0PWsnYUZJkeygSAwNtbYnEVBCAAAQhAAAIQaEcglHWexghl7Yh1xVsrIKZLONhzM7KEx/SO33S5BSnHZh9Zh6nJzt5rr73WrF+/PhF4szaDdDpkrZ3A26k8Q/owN/fgNvcGSOx27RPRNH04WfqQtbwCrxVt3UPo3EPl0kJ61s5qe8iaWzIiXWrB8pdvTC5cuDA5mE0enQTerBh0u4/T+H4J2SfmyZCjg21FCZDPRYnRHgLFCXgXePMKuN1MDWUCQODtFilehwAEIAABCEAAAsUIhLLOK2a1jtZZh3RllQHI4617+Ji07yQu5+mvqjbkX1WkGacfAtTg7Yce14ZGgHk3tIhgj0YCCLxdoorAqzHt8QkCEIAABCAAgToJcKNXH/0sETZvCbW01XnryNbnbfbI5F9oEcEeCEBAOwHmXe0Rxr8QCHgXeMUp+UrUzMxMq65WL46GMgEg8PYSPa6BAAQgAAEIQKApBGT3p9QsPXPmzBUup89isA1CWec1JUZpPzuVLyjCxP2av1znlm4o0k/Vbcm/qokzXi8EqMHbCzWuCZUA826okcEuTQS8C7xSu8mtw2VhuXWv8gAMZQJA4M0TLdpAAAIQgAAEIACBuQ/5z549a9KHcaXZhLLOI2bNJED+NTPusXlNnsYWMeztRIB8Jj8gUD4B7wKvL5NDmQAQeH1FlH4gAAEIQAACENBOAIFXe4R1+BfKfYYOmnhRFgFq8JZFln7rIMC8Wwd1xmwaAQTeLhFH4G3aWwJ/IQABCEAAAhDolQACb6/kuK5KAggNVdJmrG4ErJDbrV369euvv77oJbSHQG0EmHdrQ8/ADSLgReC1p/GuWrUqQUeJhgZlEK5CAAIQgAAEIACB3xJA4CUVYiCA0BBDlJpj4+uvv25uvPFGI/XM8zwGBwfNz372M3P11VfnaU4bCARBgHk3iDBghHICXgTeMhiFMgGwg7eM6NInBCAAAQhAAAIaCSDwaoyqPp9Cuc/QRxaPeiXw8MMPm+3bt+e6/MCBA+aBBx7I1ZZGEAiFAPNuKJHADs0EEHi7RBeBV3P64xsEIAABCEAAAj4JIPD6pElfZRFAaCiLLP32Q+CWW24xf/M3f9Oxi5tvvrlrm35s4FoIlEWAebcssvQLgbcJeBd4jx07RokGMgwCEIAABCAAAQg0kAACbwODHqHLCA0RBq0BJn//+983d999d0dPv/e975mPf/zjDaCBi9oIMO9qiyj+hEjAu8Cb5eSFCxfMqVOnzI4dO3IzCGUCYAdv7pDREAIQgAAEIACBhhNA4G14AkTifij3GZHgwswKCXzqU58yx48fzxxxeHjYfPOb36zQGoaCgD8CzLv+WNITBNoRqETglUPYJiYmzMjIiJGi8HkeoUwACLx5okUbCEAAAhCAAAQgkJ9AKOu8/BbTUhMB8k9TNHX58vd///fmD/7gDzKd+ru/+zvz+7//+7ocxpvGEGDebUyocbRGApUIvHIi6NjYmBkfH0fgrTHYDA0BCEAAAhCAAARCIMCNXghRaK4N5F9zYx+D55///OfNl770pXmmfu5znzNf/OIXYzAfGyGQSYB5l8SAQPkEvAu87WrwHj161GzYsCG3R6FMAOzgzR0yGkIAAhCAAAQgAIFcBEJZ5+UylkbqCJB/6kKqyqFf//rX5sYbbzT/8A//kPj1u7/7u+ZnP/uZede73qXKT5xpFgHm3WbFG2/rIeBd4PXlRigTAAKvr4jSDwQgAAEIQAACEJgjEMo6j3g0kwD518y4x+T1X/3VX5k/+ZM/SUz+2te+Zv74j/84JvOxFQJXEGDeJSkgUD4BBN4ujBF4y09CRoAABCAAAQhAoFkEuNFrVrxD85b8Cy0icdszMzNj7D/rifwuj1deeaXlnH3O/p/ldafXpP3ixYszYaWft79ff/31rfbynH3e/Tlu+lgfCwHm3VgihZ0xE0DgReCNOX+xHQIQgAAEIACBCAlwoxdh0AI1WQ5z3rFjh9m0aZNZuXJly8p9+/YlP+/cufMKy8m/QIMZoFkiuD711FOJZfKzCLaumNtNkA3QpStMcsXeW2+9NRGB3X8x+ICN4RNg3g0/RlgYPwHvAm+7Grwuqq1bt5rJyUkzMDDQlmA/E0CWDatXrzby/ODgYKGosYO3EC4aQwACEIAABCAAga4E+lnnde2cBo0jcOHCBXP48GGzd+/e5P5Cft+zZ485ePBg5tqf/GtciuRy+NFHHzVPP/100lZEXQ3ibS7HuzSyYq+Ivx/96Edb4q+PvumjOQSYd5sTazytj4B3gVdcEfF2zZo1ZunSpYlnssg6depU8ul63kevE8ClS5fM2NiYGR8fN6dPn07+AC1atMicP3/erF27Nu/wrXYIvIWRcQEEIAABCEAAAhDoSKDXdR5YIdCOgOzYvf3225NdvPLzkiVL2h7wTP6RR77FXBE+5ZEujeCWTnDLI7SLQLsSDLZ9O9E5/XxWOQjfu4/FZ0Rf3kt5CTDv5iVFOwj0TsC7wCsC69TUlBkdHW3t0JWvTk1MTJiRkZHcO2h7nQDc8U+cOJH8kV2xYkXh8S1SBN7ek4srIQABCEAAAhCAQBaBXtd50IRAOwJ2F++nP/1p841vfKO1m5f8I2csASvqyv9FHnbXqtSzTZcu6CbIFhmnjrauEGxLT9hdzOm6wt3sE067d+9mh283UA19nb/7DQ08bldKoBSB1+6gteUQ3F21eUsk9DoBuGKy7NqVP0zr1q1D4K00rRgMAhCAAAQgAAEItCfQ6zoPphDoREB27u7atcucO3duXj3e9DXkX7PySMp1SPmOTg8RakWgtCKuFXWbRSrbW1uDWP4X8TeP8CtC7+bNm9seCgfX5hFg3m1ezPG4egLeBV5x4dlnnzVDQ0PzvDl69Gjbr0llud3PBHDy5EmzbNmypNvh4WEzPT1t8tT9zbTj8M/N7Jb3Vx8ZRoQABCAAAQhAAAJKCfSzzlOKBLc8EEjX4m3XJfnnAXYEXYgged9992XW0hXx0S0vEIE7wZkofDuJvnZHry1fEZwDGFQpAebdSnEzWEMJlCLw+mAZygRAiQYf0aQPCEAAAhCAAAQg8DaBUNZ5xEQXAQReXfHsxxvZZXrDDTfM60JEXVtCoJ++uTabgIi9jz322BUH1L388svs5CVpDH/3SQIIlE9AncB77Nix5A+IHLBgH73UALbXIvCWn4SMAAEIQAACEIBAswhwo/VqR8QAACAASURBVNeseFflLQJvVaTDH0d27tpauyLsPvLII+EbrchCtywG/BUFtg9X+LvfBzwuhUBOAqUIvCKybty4cZ4Jq1evNvJ82TV4swTeXmoAI/DmzCCaQQACEIAABCAAgYIEuNErCIzmuQgg8ObC1IhG7k3uD3/4w6S+Lo/qCMhu3ttuu6014OzsbHWDM1KQBPi7H2RYMEoZAe8Cbz9iqsu26AQg427YsMGcOXMmM0RFawAj8CrLdNyBAAQgAAEIQCAYAkXXecEYjiEqCJB/KsLY0Qn3Jle+3XnvvfcmIi9Cb7mxl9IYsnM6fagdAm+53GPonXk3hihhY+wEShF4p6amzOjoqBkYGOiZT68TgBzwJg+3REPPRhhjKNHQDz2uhQAEIAABCEAAAlcS6HWdB0sI+CBA/vmgGHYf7k2ua6mIvSLyWsE3bC/Ct04EXflnD1uT/7MeCLzhx7JsC5l3yyZM/xAwrVrXwmKBMab13Yl+JuHJyUmzZs0as3Tp0p4ZhzIBIPD2HEIuhAAEIAABCEAAApkEQlnnEZ5mEiD/9Mc9vYNXRMishxV8b7311uQcF3b4ts8NV8yVVk8//XQi7Lbj6jLvR1vQn63N8JB5txlxxst6CXjfwZtVf1dcrKoGr2+cCLy+idIfBCAAAQhAAAJNJ8CNXtMzoF7/yb96+VcxunuT+/LLLydC5GOPPdZWkHRtEqHX/rv++utbP9vnqrC/rjGsiGv/f+WVV1o7dPPYZMthyCFrbgwQePPQ092GeVd3fPEuDALeBV5fbvUzAfg45M36gcDrK6L0AwEIQAACEIAABOYI9LPOgyEE+iVA/vVLMPzr24mLbjkBqRVb9CECpjxcsdeKwOnnbduiY/hs7+6idcVbO4YVcO1rRce2HGQHtIi67gOBtyhN3e2Zd3XHF+/CIKBO4PV1yJsNDwJvGImKFRCAAAQgAAEI6CHAjZ6eWMboCfkXY9SK2ZxXXHQFX/tzsZHytXbF3izht6gYnFVywj7XrhxFPkvbt3LFXPl58+bNHbvMG4N+7eL6OAgw78YRJ6yMm4A3gbddaQaLp6oSDSLw+jjkDYE37sTGeghAAAIQgAAEwiXAjV64sWmCZeSf/ij3Iy66O12lzqw8yhR/Q4qGFZqlFrHsTJaH/NxLbeJ+YhASE2zxQ4B51w9HeoFAJwLeBF7fmPuZAHwc8obA6zui9AcBCEAAAhCAAATmCPSzzoMhBPolQP71SzD8692b3N27d19RPqBXD9xdsu7PUurACsFl76QtYnt657D93Yq3br3horuIO9kh5Rr27t3bakIN3iJR09mWeVdnXPEqLALqBF5fh7wh8IaVqFgDAQhAAAIQgIAeAtzo6YlljJ6QfzFGrZjN7k2uXOke/lWsJz+t07Vw070WLavQqcyDT6G2iPfig9Q1lsPs0v4g8BYhqbMt867OuOJVWATUCby+8VKD1zdR+oMABCAAAQhAoOkEuNFregbU6z/5Vy//KkZPC7zumCKASskBORhM/q9LEK2CQ5lj2LIV8n+WqOuOjcBbZiTi6Jt5N444YWXcBBB4u8QPgTfuBMd6CEAAAhCAAATCI8CNXngxaZJF5J/+aKdLNLjlAtLeu2UKRPS1ArB+Svk8tLtxZXeuPKQu8VNPPdXxYjmAzbaXhgi8+VhrbsW8qzm6+BYKAZUC77PPPmuGhoYSxufOnTOLFi0yhw8fTuoADQwMFGKPwFsIF40hAAEIQAACEIBAVwLc6HVFRIMSCZB/JcINpOv0AV92t6nsNO0mTloX3APH5Dkr/lpBOBBX+zbDrRls2UhN4aIHy6XLYHDIWt+hUdUB866qcOJMoATUCbyXL182ExMTZmRkxJw+fTr5BHbFihWt5wYHBwuFAoG3EC4aQwACEIAABCAAga4EuNHriogGJRIg/0qEG0jXncRFK1zKTtSiIqbrXqcDzNKvpUVj32Uhsmr8Zj1nhVuxR14vWvs37b+UuJAD2+RQtfQDgTeQN0MgZjDvBhIIzFBNQJ3Ae+nSJTM1NWVGR0fNiRMnEHhVpy/OQQACEIAABCAQIwFu9GKMmh6byT89sWznSRFx0Qqd8n+/oq8Pslnibz9CrC+brJgr/8u/bo8iMejWF6/HT4B5N/4Y4kH4BNQJvLKDd/fu3WbLli3mhRdeSAReSjSEn4hYCAEIQAACEIBAcwhwo9ecWIfoKfkXYlT82uRDXHSFX7HOir/97nz162n/vVlB2ZaekB259uc8Qq4Pkb1/L+ghdALMu6FHCPs0EFAn8EpQLly4YIaHh8309HQSo+XLl5vjx4+bpUuXFo4ZJRoKI+MCCEAAAhCAAAQg0JEAN3okSJ0EyL866VcztnuTKyKlbADqR6zMstqtXSuvu79LKQT76FY+wQeRrJIQ7nMi2srDrR9cVi1h8fe+++6bV+uYQ9Z8RDnuPph3444f1sdBQJ3Ae/LkSbNs2bIrxFwp3bBhwwazc+dOs3LlytzRQeDNjYqGEIAABCAAAQhAIBcBbvRyYaJRSQTIv5LABtSte5NrzRJBU4Re+d+32OvT9axyDL5r9vq014rbjz76aLLLOesQOwRe38Tj6495N76YYXF8BNQJvMeOHTPf/e53kx27W7duNZOTk0lUbNmGxx9/3CxZsiQRe/M8EHjzUKINBCAAAQhAAAIQyE+AG738rGjpnwD5559paD1mCbyujVbkvfXWW4MXfENjawVoEXTlsXfv3q4mIvB2RaS+AfOu+hDjYAAEVAq8R44cMSL0nj9/PvmqzF133dU6eO3VV181hw8fTv4QDQwMdA0BAm9XRDSAAAQgAAEIQAAChQhwo1cIF409EyD/PAMNsDv3JveRRx4xjz32WObO0izRV56zwm9ZZQwCRHaFSW4NYnsAXdbu3PSFwkyY33bbba2XEHhjiHi5NjLvlsuX3iEgBNQJvFKKYWpqyoyOjhoRc0+dOmXuueee1nNvvfVW62cEXt4EEIAABCAAAQhAoHoC3OhVz5wR3yZA/unPhqxD1kSkFIEyj9ibFn7ldyv2ivhrf3efj4mqWy/YPTROSizII4+Qm2Z07733mj179rSe9nHQXUxMsbUzAeZdMgQC5RNQKfCOjY2Z8fFxc/HixWS37qc//WnzjW98I9m1i8BbflIxAgQgAAEIQAACEOhEgBs98qNOAuRfnfSrGbubuGjFXhE07c/9Wmbr5Kb/l37dQ86yxONex846wM32ZQ96S4u5vY5lr3OFbvl58+bNmV12i0G/dnB9XASYd+OKF9bGSUCdwCthkPIMGzduNMuXL09EXam/+6EPfcjs2LEjEX3Pnj2bHLaW50GJhjyUaAMBCEAAAhCAAATyE+BGLz8rWvonQP75Zxpaj72Ii67oK/74En5DY5PXHitUy4F0IlB3EnOz+uwlBnlto118BJh344sZFsdHQKXAmxWGy5cvJwKv/KEWAXhwcDBXtBB4c2GiEQQgAAEIQAACEMhNgBu93KhoWAIB8q8EqIF16VNctDtgbdkCW8bA987YKhG6u4zlZ3eHsT2Arl97fMagX1u4vn4CzLv1xwAL9BNojMDbaygReHslx3UQgAAEIAABCEAgmwA3emRGnQTIvzrpVzN2HeKiK/iKl1nlE2zZBEvBbdMLGSvUyrVWpLX9ZJWMcNv3Ml6Ra+qIQRH7aFstAebdankzWjMJqBR4bYkGN6SrV68utHPXXovA28w3Bl5DAAIQgAAEIFAeAW70ymNLz90JkH/dGcXeAnGx/ggSg/pjEJIFzLshRQNbtBJQJ/BeunTJ2EPWTp8+ndQKWrRokTl//rxZu3Zt4Tgi8BZGxgUQgAAEIAABCECgIwFu9EiQOgmQf3XSr2ZsxMVqOHcahRjUH4OQLGDeDSka2KKVgEqBd2pqyoyOjpoTJ04kAu+KFSvMxMSEGRkZyV171wYcgVdr6uMXBCAAAQhAAAJ1EeBGry7yjCsEyD/9eYC4WH+MiUH9MQjJAubdkKKBLVoJqBN45TA1K+bKrl2pa7Ru3ToEXq0ZjF8QgAAEIAABCERHgBu96EKmymDyT1U4M51BXKw/xsSg/hiEZAHzbkjRwBatBNQJvBKokydPmmXLliUxGx4eNtPT02br1q1mcnLSDAwMFIolO3gL4aIxBCAAAQhAAAIQ6EqAG72uiGhQIgHyr0S4gXSNuFh/IIhB/TEIyQLm3ZCigS1aCagUeH0GC4HXJ036ggAEIAABCEAAAnxFnhyolwBCQ738qxgdcbEKyp3HIAb1xyAkC5h3Q4oGtmglgMDbJbIIvFpTH78gAAEIQAACEKiLADd6dZFnXCFA/unPA8TF+mNMDOqPQUgWMO+GFA1s0UpAjcB77Ngxs3HjxrZxWr16tZE2g4ODhWKJwFsIF40hAAEIQAACEIBAVwLc6HVFRIMSCZB/JcINpGvExfoDQQzqj0FIFjDvhhQNbNFKQJ3Ae/ToUbNhwwZv8ULg9YaSjiAAAQhAAAIQgEBCgBs9EqFOAuRfnfSrGbtscfHZZ581Q0ND85zxfR8qnV+6dMmMjY2Z8fHxwhuVqiHdfpSyY1C3f4xfjADzbjFetIZALwTUCLzWebuTt9cdu2mICLy9pBXXQAACEIAABCAAge43/rOzs2CCQOUEEBoqR175gGWLiyLwnj171uzcuTPx7fLly2bHjh3m2muvbT3nw2kEXh8U6SMEAsy7IUQBG7QTUCfw2oDJH0PZyXvmzBnTz6epCLza3wL4BwEIQAACEIBA1QS40auaOOO5BMg//flQtcArROX+c9u2bWbPnj1m6dKlHSF/7WtfM+vWreu6KxeBV3+uNsVD5t2mRBo/6ySgVuB1ocqu3iNHjlCDt85MY2wIQAACEIAABCDwWwLc6JEKdRIg/+qkX83YdQi84tm+ffvMkiVLko1GFy5cMMPDw2Z6ejpx2m46kja7du1KnrPfOr148WJmWyvwSttDhw4l1zz00EOtXcLtxrA7iu017rdb3fISvr71mhXVsmNQTSYxii8CzLu+SNIPBNoTUCvwsoOXtIcABCAAAQhAAAJhEuBGL8y4NMUq8k9/pMsWF9MlGixR2Vgkj/SZMO5O3KuuuspMTEyYkZGRzB28blvbl5SCWLlyZdK3KyK7kXSvO3/+vJmZmbnCDhGEDx8+bPbu3WsGBgYSEdr93WdmlB0Dn7bSV/kEmHfLZ8wIEFAn8FKDl6SGAAQgAAEIQAACYRPgRi/s+Gi3jvzTHuG3D3IUT8uo9d1O4O20g9fuls0SeNM7cW1bsT99yJo7dqfrrMgs98eDg4NJ0O29spsBZe3iReDV/z4r4iHzbhFatIVAbwTUCLz2j1U/9XazEFKDt7fE4ioIQAACEIAABCDQjgA3euRGnQTIvzrpVzN22eJilsDr1uBdtGjRvHq8nXbwpmv3pnfwthN4ZQewW/M3q16v/VarFXdPnz6dBCC9w7iMqJQdgzJsps/yCDDvlseWniFgCagTeNuFttdPJhF4ebNAAAIQgAAEIAABvwS40fPLk96KESD/ivGKsXXZ4mJa4LVCqpRRkHIKsrNWDls7ePBgsntW2svuXtmUJDt4d+/ebbZs2ZIcxtaprRVjN23alIiytrbuqlWrzM0339x2DLtj18ZucnLSrFmzJvl1+/bt5sCBA10Pgus37mXHoF/7uL5aAsy71fJmtGYSUCPwlhU+BN6yyNIvBCAAAQhAAAJNJcCNXlMjH4bf5F8YcSjTirLFRfegMutH+pukbjmEBx980CxcuLBVdzddVlB21m7cuDHpym0rv09NTZk33njD7N+/P3ndPWSt3RhSg3doaKiF2L0mbbv7ms+YlB0Dn7bSV/kEmHfLZ8wIEEDg7ZIDCLy8SSAAAQhAAAIQgIBfAtzo+eVJb8UIkH/FeMXYGnGx/qgRg/pjEJIFzLshRQNbtBJA4EXg1Zrb+AUBCEAAAhCAQKAEuNELNDANMYv80x9oxMX6Y0wM6o9BSBYw74YUDWzRSgCBF4FXa27jFwQgAAEIQAACgRLgRi/QwDTELPJPf6ARF+uPMTGoPwYhWcC8G1I0sEUrAQReBF6tuY1fEIAABCAAAQgESoAbvUAD0xCzyD/9gUZcrD/GxKD+GIRkAfNuSNHAFq0EEHgReLXmNn5BAAIQgAAEIBAoAW70Ag1MQ8wi//QHGnGx/hgTg/pjEJIFzLshRQNbtBJA4EXg1Zrb+AUBCEAAAhCAQKAEuNELNDANMYv80x9oxMX6Y0wM6o9BSBYw74YUDWzRSgCBF4FXa27jFwQgAAEIQAACgRLgRi/QwDTELPJPf6CrEhefffZZMzQ0ZM6dO2dWrlw5D+yxY8fM/v37zfHjx83SpUv1Q095WFUMGgc2UoeZdyMNHGZHRQCBF4E3qoTFWAhAAAIQgAAE4ifAjV78MYzZA/Iv5ujls70qcVEE3ocffth84AMfMDt37mwZd/nyZbN7927z6quvmr179yLwzs7mCxyt1BJg3lUbWhwLiAACLwJvQOmIKRCAAAQgAAEINIEAN3pNiHK4PpJ/4cbGl2VVCrwnT540CxcuNCMjI2ZwcDBxQYRfeV4eW7ZsqVzgFYH5yJEjZtOmTWZgYMAX1kL9VBWDQkbRuDYCzLu1oWfgBhFA4EXgbVC64yoEIAABCEAAAiEQ4EYvhCg01wbyT3/sqxIXRcg9e/asWbJkSQJ1w4YNyf/79u0zH/rQh8yTTz7ZEngvXLhghoeHzfT0dNLm6NGj89rv2rVrXmBs2Qfpy7720EMPtXYKT05Omne/+91m69atyXXLly9PykFcd911ZseOHebQoUPJ8/K6tJ2YmGj1s3r1aiMlJKwgXUZGVBWDMmynT/8EmHf9M6VHCKQJIPAi8PKugAAEIAABCEAAApUS4EavUtwMliJA/ulPiarERSvwrl+/3hw+fDgpx/DWW2+ZqampZEfvn//5n2fu4L106ZIZGxsz4+Pj5uLFi61rZbetCK+LFy9OavrKz/KwwrH7uwi/r732WiLe2uteeumlRACW/sWG0dHRzB286X7LyIiqYlCG7fTpnwDzrn+m9AgBBN6CObDg8M/N7Jb3F7yK5hCAAAQgAAEIQAAC7Qhwo0du1EmA/KuTfjVjVyUuWoFXhFSpuSvlGESwnZmZMevWrWs9J4espXfw2l20WQKvUJLr3Z24lpzdxSsC7+2339463E36P3XqVHJNlsDr7gSWvtwdxGVEpaoYlGE7ffonwLzrnyk9QgCBt2AOIPAWBEZzCEAAAhCAAAQg0IUAN3qkSJ0EyL866VczdlXiohV4Zdes3RX7i1/8wqxZsyYplWBF30WLFplt27aZPXv2JPV43R28UibBFV9tSQUhZa+Xa9KPIgKv2GZ390o/7OCtJg8Z5W0CzLtkAwTKJ0CJhm43IOzgLT8LGQECEIAABCAAgUYR4EavUeEOzlnyL7iQeDeoDoFXRFsppSDlFaRsgivQys8i7h48eDCpeyvCsAi0IrReddVVSX1c95A2C0Ref+aZZ1plGFxQ3QReWwLCCshSJ1jskwPYZJfvqlWrWqUfvAfAGFNVDMqwnT79E2De9c+UHiGQJoDAi8DLuwICEIAABCAAAQhUSoAbvUpxM1iKAPmnPyWqEhfdHbxCVURXV0h1d+CKWLtx48YE/oMPPmgWLlzYEnXd1+R19zC1dGkF9/C1diUarC1yOJvsCJYdxlI+4syZM8lhbCImywFttrZvGRlRVQzKsJ0+/RNg3vXPlB4hgMBbMAco0VAQGM0hAAEIQAACEIBAFwLc6JEidRIg/+qkX83YMYmLrigsdGSHbafSDNUQ7H+UmGLQv7f00I0A8243QrwOgf4JsIO32w0IJRr6zzJ6gAAEIAABCEAAAg4BbvRIhzoJkH910q9m7JjExXSphXR93mqI+R8lphj4954e0wSYd8kJCJRPAIEXgbf8LGMECEAAAhCAAAQggMBLDgRCAKEhkECUaEZM4uKFCxfM8PCwmZ6eTohICYXjx48nh7HF/IgpBjFzjsV25t1YIoWdMRNA4EXgjTl/sR0CEIAABCAAgQgJcKMXYdAUmUz+KQpmG1cQF+uPMTGoPwYhWcC8G1I0sEUrAQReBF6tuY1fEIAABCAAAQgESoAbvUAD0xCzyD/9gb7hhhvMzMxM4ujLL79sFi9erN/pwDxE4A0sIDWbw7xbcwAYvhEEEHgReBuR6DgJAQhAAAIQgEA4BLjRCycWTbSE/NMf9fvuu888+uijiaNyYNnmzZsReSsMu8v/ox/9qPnhD39Y4egMFSIB5t0Qo4JN2ggg8CLwastp/IEABCAAAQhAIHAC3OgFHiDl5pF/ygNsjHnqqafMbbfdNs9RhN5y4y6C+tNPP52wt7unZUR2UJfLPZbemXdjiRR2xkwAgReBN+b8xXYIQAACEIAABCIkwI1ehEFTZDL5pyiYHVwRoVF2krpio20uu0pvvfVWI/9L+QZKOBTPCSvkZom60pswfeSRRxLGPCDAvEsOQKB8Agi8CLzlZxkjQAACEIAABCAAAYcAN3qkQ50EyL866Vc/toi86V2laSusCOmKvlakrN7isEYUgdzye+WVV7qyFOtlt/SePXvCcgRraiXAvFsrfgZvCAEEXgTehqQ6bkIAAhCAAAQgEAoBbvRCiUQz7SD/mhl3ESn37t2b7OjN2tWbRcXu7pX/r7/++tZuX7vjV8POX8vD/i8irvtc3myROscikMv/PCCQJsC8S05AoHwCCLwIvOVnGSNAAAIQgAAEIAABhwA3eqRDnQTIvzrphzG2iL3yT8oLFBF8O4nA8poVgm27LCG4kyicRzBuJ07b593X7c8i2srD9TWvyN0uYlbIRdQNI6dDt4J5N/QIYZ8GAgi8CLwa8hgfIAABCEAAAhCIiAA3ehEFS6Gp5J/CoPbpkoi98nBFXyuI9tl19JeL6NyuhEX0zuFAZQSYdytDzUANJoDAi8Db4PTHdQhAAAIQgAAE6iDAjV4d1BnTEiD/yIW8BNLlC2THryv89rsLNq8dZbbrVIYiz47iMm2jbz0EmHf1xBJPwiWAwIvAG252YhkEIAABCEAAAioJcKOnMqzROEX+RROqKAxNlz1wRV+3NIJ1ppMonEcwbie6ZpWDkLrB8nBf01Q/OIoEwciEAPMuiQCB8gkg8CLwlp9ljAABCEAAAhCAAAQcAtzokQ51EiD/6qTP2BCAQBMJMO82Mer4XDUBBF4E3qpzjvEgAAEIQAACEGg4AW70Gp4ANbtP/tUcAIaHAAQaR4B5t3Ehx+EaCCDwIvDWkHYMCQEIQAACEIBAkwlwo9fk6NfvO/lXfwywAAIQaBYB5t1mxRtv6yGAwIvAW0/mMSoEIAABCEAAAo0lwI1eY0MfhOPkXxBhwAgIQKBBBJh3GxRsXK2NAAIvAm9tycfAEIAABCAAAQg0kwA3es2Meyhek3+hRAI7IACBphBg3m1KpPGzTgIIvAi8deYfY0MAAhCAAAQg0EAC3Og1MOgBuUz+BRQMTIEABBpBgHm3EWHGyZoJIPAi8NacggwPAQhAAAIQgEDTCHCj17SIh+Uv+RdWPLAGAhDQT4B5V3+M8bB+Agi8CLz1ZyEWQAACEIAABCDQKALc6DUq3ME5S/4FFxIMggAElBNg3lUeYNwLggACLwJvEImIERCAAAQgAAEINIcAN3rNiXWInpJ/IUYFmyAAAc0EmHc1RxffQiGAwIvAG0ouYgcEIAABCEAAAg0hwI1eQwIdqJvkX6CBwSwIQEAtAeZdtaHFsYAIIPAi8AaUjpgCAQhAAAIQgEATCHCj14Qoh+sj+RdubLAMAhDQSYB5V2dc8SosAgi8CLxhZSTWQAACEIAABCCgngA3eupDHLSD5F/Q4cE4CEBAIQHmXYVBxaXgCCDwIvAGl5QYBAEIQAACEICAbgLc6OmOb+jekX+hRwj7IAABbQSYd7VFFH9CJIDAi8AbYl5iEwQgAAEIQAACiglwo6c4uBG4Rv5FECRMhAAEVBFg3lUVTpwJlAACLwJvoKmJWRCAAAQgAAEIaCXAjZ7WyMbhF/kXR5ywEgIQ0EOAeVdPLPEkXAIIvAi84WYnlkEAAhCAAAQgoJIAN3oqwxqNU+RfNKHCUAhAQAkB5l0lgcSNoAkg8CLwBp2gGAcBCEAAAhCAgD4C3Ojpi2lMHpF/MUULWyEAAQ0EmHc1RBEfQieAwIvAG3qOYh8EIAABCEAAAsoIcKOnLKCRuUP+RRYwzIUABKInwLwbfQhxIAICCLwIvBGkKSZCAAIQgAAEIKCJADd6mqIZny/kX3wxw2IIQCBuAsy7cccP6+MggMCLwBtHpmIlBCAAAQhAAAJqCHCjpyaUUTpC/kUZNoyGAAQiJsC8G3HwMD0aAgi8CLzRJCuGQgACEIAABCCggwA3ejriGKsX5F+skcNuCEAgVgLMu7FGDrtjIoDAi8AbU75iKwQgAAEIQAACCghwo6cgiBG7QP5FHDxMhwAEoiTAvBtl2DA6MgIIvAi8kaUs5kIAAhCAAAQgEDsBbvRij2Dc9pN/cccP6yEAgfgIMO/GFzMsjo8AAi8Cb3xZi8UQgAAEIAABCERNgBu9qMMXvfHkX/QhxAEIQCAyAsy7kQUMc6MkgMCLwBtl4mI0BCAAAQhAAALxEuBGL97YabCc/NMQRXyAAARiIsC8G1O0sDVWAgi8CLyx5i52QwACEIAABCAQKQFu9CINnBKzyT8lgcQNCEAgGgLMu9GECkMjJoDAi8AbcfpiOgQgAAEIQAACMRLgRi/GqOmxmfzTE0s8gQAE4iDAvBtHnLAybgIIvAi8cWcw1kMAAhCAAAQgEB0BbvSiC5kqg8k/VeHEGQhAIAICzLsRBAkToyeAwIvAG30S4wAEIAABCEAAAnER4EYvrnhps5b80xZR/IEABEInwLwbeoSwTwMBBF4EXg15jA8QgAAEIAABCEREgBu9iIKlLng1NQAACdlJREFU0FTyT2FQcQkCEAiaAPNu0OHBOCUEEHgReJWkMm5AAAIQgAAEIBALAW70YomUTjvJP51xxSsIQCBcAsy74cYGy/QQQOBF4NWTzXgCAQhAAAIQgEAUBLjRiyJMao0k/9SGFscgAIFACTDvBhoYzFJFAIEXgVdVQuMMBCAAAQhAAALhE+BGL/wYabaQ/NMcXXyDAARCJMC8G2JUsEkbAQReBF5tOY0/EIAABCAAAQgEToAbvcADpNw88k95gHEPAhAIjgDzbnAhwSCFBBB4EXgVpjUuQQACEIAABCAQMgFu9EKOjn7byD/9McZDCEAgLALMu2HFA2t0EkDgReDVmdl4BQEIQAACEIBAsAS40Qs2NI0wjPxrRJhxEgIQCIgA825AwcAUtQQQeBF41SY3jkEAAhCAAAQgECYBbvTCjEtTrCL/mhJp/IQABEIhwLwbSiSwQzMBBF4EXs35jW8QgAAEIAABCARIgBu9AIPSIJPIvwYFG1chAIEgCDDvBhEGjFBOAIEXgVd5iuMeBCAAAQhAAAKhEeBGL7SINMse8q9Z8cZbCECgfgLMu/XHAAv0E0DgReDVn+V4CAEIQAACEIBAUATcBWhQhmEMBCAAAQhAAAKlEZidnS2tbzqGQNMJIPAi8Db9PYD/EIAABCAAAQhUTACBt2LgDAcBCEAAAhAIgAACbwBBwAS1BBB4EXjVJjeOQQACEIAABCAAAQhAAAIQgAAEIAABCEBAOwEEXgRe7TmOfxCAAAQgAAEIQAACEIAABCAAAQhAAAIQUEsAgReBV21y4xgEIAABCEAAAhCAAAQgAAEIQAACEIAABLQTQOBF4NWe4/gHAQhAAAIQgAAEIAABCEAAAhCAAAQgAAG1BBB4EXjVJjeOQQACEIAABCAAAQhAAAIQgAAEIAABCEBAOwEEXgRe7TmOfxCAAAQgAAEIQAACEIAABCAAAQhAAAIQUEsAgReBV21y4xgEIAABCEAAAhCAAAQgAAEIQAACEIAABLQTQOBF4NWe4/gHAQhAAAIQgAAEIAABCEAAAhCAAAQgAAG1BBB4EXjVJjeOQQACEIAABCAAAQhAAAIQgAAEIAABCEBAOwEEXgRe7TmOfxCAAAQgAAEIQAACEIAABCAAAQhAAAIQUEsAgReBV21y4xgEIAABCEAAAhCAAAQgAAEIQAACEIAABLQTQOBF4NWe4/gHAQhAAAIQgAAEIAABCEAAAhCAAAQgAAG1BBB4EXjVJjeOQQACEIAABCAAAQhAAAIQgAAEIAABCEBAOwEEXgRe7TmOfxCAAAQgAAEIQAACEIAABCAAAQhAAAIQUEsAgReBV21y4xgEIAABCEAAAhCAAAQgAAEIQAACEIAABLQTQOBF4NWe4/gHAQhAAAIQgAAEIAABCEAAAhCAAAQgAAG1BBB4EXjVJjeOQQACEIAABCAAAQhAAAIQgAAEIAABCEBAOwEEXgRe7TmOfxCAAAQgAAEIQAACEIAABCAAAQhAAAIQUEsAgReBV21y4xgEIAABCEAAAhCAAAQgAAEIQAACEIAABLQTQOBF4NWe4/gHAQhAAAIQgAAEIAABCEAAAhCAAAQgAAG1BBB4EXjVJjeOQQACEIAABCAAAQhAAAIQgAAEIAABCEBAOwEEXgRe7TmOfxCAAAQgAAEIQAACEIAABCAAAQhAAAIQUEsAgReBV21y4xgEIAABCEAAAhCAAAQgAAEIQAACEIAABLQTQOBF4NWe4/gHAQhAAAIQgAAEIAABCEAAAhCAAAQgAAG1BBB4EXjVJjeOQQACEIAABCAAAQhAAAIQgAAEIAABCEBAOwEEXgRe7TmOfxCAAAQgAAEIQAACEIAABCAAAQhAAAIQUEsAgReBV21y4xgEIAABCEAAAhCAAAQgAAEIQAACEIAABLQTQOBF4NWe4/gHAQhAAAIQgAAEIAABCEAAAhCAAAQgAAG1BBB4EXjVJjeOQQACEIAABCAAAQhAAAIQgAAEIAABCEBAOwEEXgRe7TmOfxCAAAQgAAEIQAACEIAABCAAAQhAAAIQUEsAgReBV21y4xgEIAABCEAAAhCAAAQgAAEIQAACEIAABLQTQOBF4NWe4/gHAQhAAAIQgAAEIAABCEAAAhCAAAQgAAG1BBB4EXjVJjeOQQACEIAABCAAAQhAAAIQgAAEIAABCEBAOwEEXgRe7TmOfxCAAAQgAAEIQAACEIAABCAAAQhAAAIQUEsAgReBV21y4xgEIAABCEAAAhCAAAQgAAEIQAACEIAABLQTQOBF4NWe4/gHAQhAAAIQgAAEIAABCEAAAhCAAAQgAAG1BBB4EXjVJjeOQQACEIAABCAAAQhAAAIQgAAEIAABCEBAOwEEXgRe7TmOfxCAAAQgAAEIQAACEIAABCAAAQhAAAIQUEsAgReBV21y4xgEIAABCEAAAhCAAAQgAAEIQAACEIAABLQTQOBF4NWe4/gHAQhAAAIQgAAEIAABCEAAAhCAAAQgAAG1BBB4EXjVJjeOQQACEIAABCAAAQhAAAIQgAAEIAABCEBAOwEEXgRe7TmOfxCAAAQgAAEIQAACEIAABCAAAQhAAAIQUEsAgReBV21y4xgEIAABCEAAAhCAAAQgAAEIQAACEIAABLQTQOBF4NWe4/gHAQhAAAIQgAAEIAABCEAAAhCAAAQgAAG1BBB4EXjVJjeOQQACEIAABCAAAQhAAAIQgAAEIAABCEBAOwEEXgRe7TmOfxCAAAQgAAEIQAACEIAABCAAAQhAAAIQUEsAgReBV21y4xgEIAABCEAAAhCAAAQgAAEIQAACEIAABLQTQOBF4NWe4/gHAQhAAAIQgAAEIAABCEAAAhCAAAQgAAG1BBB4EXjVJjeOQQACEIAABCAAAQhAAAIQgAAEIAABCEBAOwEEXgRe7TmOfxCAAAQgAAEIQAACEIAABCAAAQhAAAIQUEsAgReBV21y4xgEIAABCEAAAhCAAAQgAAEIQAACEIAABLQTQOBF4NWe4/gHAQhAAAIQgAAEIAABCEAAAhCAAAQgAAG1BBB4EXjVJjeOQQACEIAABCAAAQhAAAIQgAAEIAABCEBAOwEEXgRe7TmOfxCAAAQgAAEIQAACEIAABCAAAQhAAAIQUEsAgReBV21y4xgEIAABCEAAAhCAAAQgAAEIQAACEIAABLQTQOBF4NWe4/gHAQhAAAIQgAAEIAABCEAAAhCAAAQgAAG1BNoKvGo9xjEIQAACEIAABCAAAQhAAAIQgAAEIAABCEAAAgoJLDDGzCr0C5cgAAEIQAACEIAABCAAAQhAAAIQgAAEIAABCKgngMCrPsQ4CAEIQAACEIAABCAAAQhAAAIQgAAEIAABCGgl8P8BfwgrCTTzfGoAAAAASUVORK5CYII=;" vertex="1" parent="1">
          <mxGeometry x="40" y="1440" width="1400" height="520" as="geometry" />
        </mxCell>
        <mxCell id="g-JHbJqc6vK05-hs5_N7-3" value="Inquiry Data Merchant FDM RIPLAY" style="swimlane;childLayout=stackLayout;resizeParent=1;resizeParentMax=0;horizontal=0;startSize=20;horizontalStack=0;html=1;" vertex="1" parent="1">
          <mxGeometry x="40" y="1030" width="1090" height="340" as="geometry" />
        </mxCell>
        <mxCell id="g-JHbJqc6vK05-hs5_N7-4" value="Channel" style="swimlane;startSize=20;horizontal=0;html=1;" vertex="1" parent="g-JHbJqc6vK05-hs5_N7-3">
          <mxGeometry x="20" width="1070" height="120" as="geometry" />
        </mxCell>
        <mxCell id="g-JHbJqc6vK05-hs5_N7-9" style="edgeStyle=orthogonalEdgeStyle;rounded=0;orthogonalLoop=1;jettySize=auto;html=1;" edge="1" parent="g-JHbJqc6vK05-hs5_N7-4" source="g-JHbJqc6vK05-hs5_N7-7" target="g-JHbJqc6vK05-hs5_N7-8">
          <mxGeometry relative="1" as="geometry" />
        </mxCell>
        <mxCell id="g-JHbJqc6vK05-hs5_N7-7" value="mulai" style="ellipse;whiteSpace=wrap;html=1;aspect=fixed;" vertex="1" parent="g-JHbJqc6vK05-hs5_N7-4">
          <mxGeometry x="30" y="40" width="40" height="40" as="geometry" />
        </mxCell>
        <mxCell id="g-JHbJqc6vK05-hs5_N7-8" value="Kirim request inquiry data merchant berdasarkan CIN" style="rounded=0;whiteSpace=wrap;html=1;" vertex="1" parent="g-JHbJqc6vK05-hs5_N7-4">
          <mxGeometry x="100" y="25" width="120" height="70" as="geometry" />
        </mxCell>
        <mxCell id="g-JHbJqc6vK05-hs5_N7-60" style="edgeStyle=orthogonalEdgeStyle;rounded=0;orthogonalLoop=1;jettySize=auto;html=1;entryX=0;entryY=0.5;entryDx=0;entryDy=0;" edge="1" parent="g-JHbJqc6vK05-hs5_N7-4" source="g-JHbJqc6vK05-hs5_N7-57" target="g-JHbJqc6vK05-hs5_N7-59">
          <mxGeometry relative="1" as="geometry" />
        </mxCell>
        <mxCell id="g-JHbJqc6vK05-hs5_N7-57" value="Terima data" style="rounded=0;whiteSpace=wrap;html=1;" vertex="1" parent="g-JHbJqc6vK05-hs5_N7-4">
          <mxGeometry x="870" y="25" width="120" height="70" as="geometry" />
        </mxCell>
        <mxCell id="g-JHbJqc6vK05-hs5_N7-59" value="selesai" style="ellipse;whiteSpace=wrap;html=1;aspect=fixed;" vertex="1" parent="g-JHbJqc6vK05-hs5_N7-4">
          <mxGeometry x="1010" y="40" width="40" height="40" as="geometry" />
        </mxCell>
        <mxCell id="g-JHbJqc6vK05-hs5_N7-15" style="edgeStyle=orthogonalEdgeStyle;rounded=0;orthogonalLoop=1;jettySize=auto;html=1;entryX=0.5;entryY=0;entryDx=0;entryDy=0;" edge="1" parent="g-JHbJqc6vK05-hs5_N7-3" source="g-JHbJqc6vK05-hs5_N7-8" target="g-JHbJqc6vK05-hs5_N7-14">
          <mxGeometry relative="1" as="geometry" />
        </mxCell>
        <mxCell id="g-JHbJqc6vK05-hs5_N7-58" style="edgeStyle=orthogonalEdgeStyle;rounded=0;orthogonalLoop=1;jettySize=auto;html=1;entryX=0.5;entryY=1;entryDx=0;entryDy=0;" edge="1" parent="g-JHbJqc6vK05-hs5_N7-3" source="g-JHbJqc6vK05-hs5_N7-55" target="g-JHbJqc6vK05-hs5_N7-57">
          <mxGeometry relative="1" as="geometry" />
        </mxCell>
        <mxCell id="g-JHbJqc6vK05-hs5_N7-5" value="Magenta" style="swimlane;startSize=20;horizontal=0;html=1;" vertex="1" parent="g-JHbJqc6vK05-hs5_N7-3">
          <mxGeometry x="20" y="120" width="1070" height="220" as="geometry" />
        </mxCell>
        <mxCell id="g-JHbJqc6vK05-hs5_N7-17" style="edgeStyle=orthogonalEdgeStyle;rounded=0;orthogonalLoop=1;jettySize=auto;html=1;entryX=0;entryY=0.5;entryDx=0;entryDy=0;" edge="1" parent="g-JHbJqc6vK05-hs5_N7-5" source="g-JHbJqc6vK05-hs5_N7-14" target="g-JHbJqc6vK05-hs5_N7-16">
          <mxGeometry relative="1" as="geometry" />
        </mxCell>
        <mxCell id="g-JHbJqc6vK05-hs5_N7-14" value="Menerima request dari Merchant BCA Apps" style="rounded=0;whiteSpace=wrap;html=1;" vertex="1" parent="g-JHbJqc6vK05-hs5_N7-5">
          <mxGeometry x="100" y="25" width="120" height="70" as="geometry" />
        </mxCell>
        <mxCell id="g-JHbJqc6vK05-hs5_N7-19" style="edgeStyle=orthogonalEdgeStyle;rounded=0;orthogonalLoop=1;jettySize=auto;html=1;entryX=0;entryY=0.5;entryDx=0;entryDy=0;" edge="1" parent="g-JHbJqc6vK05-hs5_N7-5" source="g-JHbJqc6vK05-hs5_N7-16" target="g-JHbJqc6vK05-hs5_N7-18">
          <mxGeometry relative="1" as="geometry" />
        </mxCell>
        <mxCell id="g-JHbJqc6vK05-hs5_N7-16" value="Inquriy FDM sesuai kriteria" style="rounded=0;whiteSpace=wrap;html=1;" vertex="1" parent="g-JHbJqc6vK05-hs5_N7-5">
          <mxGeometry x="245" y="25" width="120" height="70" as="geometry" />
        </mxCell>
        <mxCell id="g-JHbJqc6vK05-hs5_N7-26" style="edgeStyle=orthogonalEdgeStyle;rounded=0;orthogonalLoop=1;jettySize=auto;html=1;entryX=0;entryY=0.5;entryDx=0;entryDy=0;" edge="1" parent="g-JHbJqc6vK05-hs5_N7-5" source="g-JHbJqc6vK05-hs5_N7-18" target="g-JHbJqc6vK05-hs5_N7-21">
          <mxGeometry relative="1" as="geometry" />
        </mxCell>
        <mxCell id="g-JHbJqc6vK05-hs5_N7-27" value="Y" style="edgeLabel;html=1;align=center;verticalAlign=middle;resizable=0;points=[];" vertex="1" connectable="0" parent="g-JHbJqc6vK05-hs5_N7-26">
          <mxGeometry x="-0.0815" y="-1" relative="1" as="geometry">
            <mxPoint as="offset" />
          </mxGeometry>
        </mxCell>
        <mxCell id="g-JHbJqc6vK05-hs5_N7-61" style="edgeStyle=orthogonalEdgeStyle;rounded=0;orthogonalLoop=1;jettySize=auto;html=1;entryX=0.5;entryY=1;entryDx=0;entryDy=0;" edge="1" parent="g-JHbJqc6vK05-hs5_N7-5" source="g-JHbJqc6vK05-hs5_N7-18" target="g-JHbJqc6vK05-hs5_N7-55">
          <mxGeometry relative="1" as="geometry">
            <Array as="points">
              <mxPoint x="415" y="200" />
              <mxPoint x="930" y="200" />
            </Array>
          </mxGeometry>
        </mxCell>
        <mxCell id="g-JHbJqc6vK05-hs5_N7-62" value="N" style="edgeLabel;html=1;align=center;verticalAlign=middle;resizable=0;points=[];" vertex="1" connectable="0" parent="g-JHbJqc6vK05-hs5_N7-61">
          <mxGeometry x="-0.8408" y="-1" relative="1" as="geometry">
            <mxPoint as="offset" />
          </mxGeometry>
        </mxCell>
        <mxCell id="g-JHbJqc6vK05-hs5_N7-18" value="" style="rhombus;whiteSpace=wrap;html=1;" vertex="1" parent="g-JHbJqc6vK05-hs5_N7-5">
          <mxGeometry x="395" y="40" width="40" height="40" as="geometry" />
        </mxCell>
        <mxCell id="g-JHbJqc6vK05-hs5_N7-20" value="FDM diinput di Magenta?" style="text;html=1;align=center;verticalAlign=middle;whiteSpace=wrap;rounded=0;" vertex="1" parent="g-JHbJqc6vK05-hs5_N7-5">
          <mxGeometry x="370" y="80" width="90" height="30" as="geometry" />
        </mxCell>
        <mxCell id="g-JHbJqc6vK05-hs5_N7-47" style="edgeStyle=orthogonalEdgeStyle;rounded=0;orthogonalLoop=1;jettySize=auto;html=1;entryX=0;entryY=0.5;entryDx=0;entryDy=0;" edge="1" parent="g-JHbJqc6vK05-hs5_N7-5" source="g-JHbJqc6vK05-hs5_N7-21" target="g-JHbJqc6vK05-hs5_N7-45">
          <mxGeometry relative="1" as="geometry" />
        </mxCell>
        <mxCell id="g-JHbJqc6vK05-hs5_N7-50" value="N" style="edgeLabel;html=1;align=center;verticalAlign=middle;resizable=0;points=[];" vertex="1" connectable="0" parent="g-JHbJqc6vK05-hs5_N7-47">
          <mxGeometry x="-0.3145" y="-1" relative="1" as="geometry">
            <mxPoint as="offset" />
          </mxGeometry>
        </mxCell>
        <mxCell id="g-JHbJqc6vK05-hs5_N7-63" style="edgeStyle=orthogonalEdgeStyle;rounded=0;orthogonalLoop=1;jettySize=auto;html=1;entryX=0.5;entryY=1;entryDx=0;entryDy=0;" edge="1" parent="g-JHbJqc6vK05-hs5_N7-5" source="g-JHbJqc6vK05-hs5_N7-21" target="g-JHbJqc6vK05-hs5_N7-55">
          <mxGeometry relative="1" as="geometry">
            <Array as="points">
              <mxPoint x="545" y="200" />
              <mxPoint x="930" y="200" />
            </Array>
          </mxGeometry>
        </mxCell>
        <mxCell id="g-JHbJqc6vK05-hs5_N7-64" value="Y" style="edgeLabel;html=1;align=center;verticalAlign=middle;resizable=0;points=[];" vertex="1" connectable="0" parent="g-JHbJqc6vK05-hs5_N7-63">
          <mxGeometry x="-0.8311" y="1" relative="1" as="geometry">
            <mxPoint as="offset" />
          </mxGeometry>
        </mxCell>
        <mxCell id="g-JHbJqc6vK05-hs5_N7-21" value="" style="rhombus;whiteSpace=wrap;html=1;" vertex="1" parent="g-JHbJqc6vK05-hs5_N7-5">
          <mxGeometry x="525" y="40" width="40" height="40" as="geometry" />
        </mxCell>
        <mxCell id="g-JHbJqc6vK05-hs5_N7-66" style="edgeStyle=orthogonalEdgeStyle;rounded=0;orthogonalLoop=1;jettySize=auto;html=1;exitX=0.5;exitY=1;exitDx=0;exitDy=0;entryX=0.5;entryY=1;entryDx=0;entryDy=0;" edge="1" parent="g-JHbJqc6vK05-hs5_N7-5" source="g-JHbJqc6vK05-hs5_N7-45" target="g-JHbJqc6vK05-hs5_N7-55">
          <mxGeometry relative="1" as="geometry">
            <Array as="points">
              <mxPoint x="665" y="200" />
              <mxPoint x="930" y="200" />
            </Array>
          </mxGeometry>
        </mxCell>
        <mxCell id="g-JHbJqc6vK05-hs5_N7-69" value="N" style="edgeLabel;html=1;align=center;verticalAlign=middle;resizable=0;points=[];" vertex="1" connectable="0" parent="g-JHbJqc6vK05-hs5_N7-66">
          <mxGeometry x="-0.8154" y="-2" relative="1" as="geometry">
            <mxPoint x="2" y="5" as="offset" />
          </mxGeometry>
        </mxCell>
        <mxCell id="g-JHbJqc6vK05-hs5_N7-24" value="Merchant ecommerce / aggregator / submerchant?" style="text;html=1;align=center;verticalAlign=middle;whiteSpace=wrap;rounded=0;" vertex="1" parent="g-JHbJqc6vK05-hs5_N7-5">
          <mxGeometry x="470" y="80" width="150" height="30" as="geometry" />
        </mxCell>
        <mxCell id="g-JHbJqc6vK05-hs5_N7-49" style="edgeStyle=orthogonalEdgeStyle;rounded=0;orthogonalLoop=1;jettySize=auto;html=1;entryX=0;entryY=0.5;entryDx=0;entryDy=0;" edge="1" parent="g-JHbJqc6vK05-hs5_N7-5" source="g-JHbJqc6vK05-hs5_N7-45" target="g-JHbJqc6vK05-hs5_N7-48">
          <mxGeometry relative="1" as="geometry" />
        </mxCell>
        <mxCell id="g-JHbJqc6vK05-hs5_N7-51" value="Y" style="edgeLabel;html=1;align=center;verticalAlign=middle;resizable=0;points=[];" vertex="1" connectable="0" parent="g-JHbJqc6vK05-hs5_N7-49">
          <mxGeometry x="-0.2211" y="2" relative="1" as="geometry">
            <mxPoint as="offset" />
          </mxGeometry>
        </mxCell>
        <mxCell id="g-JHbJqc6vK05-hs5_N7-45" value="" style="rhombus;whiteSpace=wrap;html=1;fillColor=#ffff88;strokeColor=#36393d;" vertex="1" parent="g-JHbJqc6vK05-hs5_N7-5">
          <mxGeometry x="645" y="40" width="40" height="40" as="geometry" />
        </mxCell>
        <mxCell id="g-JHbJqc6vK05-hs5_N7-46" value="status outlet ACTIVE?" style="text;html=1;align=center;verticalAlign=middle;whiteSpace=wrap;rounded=0;" vertex="1" parent="g-JHbJqc6vK05-hs5_N7-5">
          <mxGeometry x="630" y="80" width="70" height="30" as="geometry" />
        </mxCell>
        <mxCell id="g-JHbJqc6vK05-hs5_N7-54" style="edgeStyle=orthogonalEdgeStyle;rounded=0;orthogonalLoop=1;jettySize=auto;html=1;entryX=0.5;entryY=0;entryDx=0;entryDy=0;dashed=1;" edge="1" parent="g-JHbJqc6vK05-hs5_N7-5" source="g-JHbJqc6vK05-hs5_N7-48" target="g-JHbJqc6vK05-hs5_N7-53">
          <mxGeometry relative="1" as="geometry" />
        </mxCell>
        <mxCell id="g-JHbJqc6vK05-hs5_N7-56" style="edgeStyle=orthogonalEdgeStyle;rounded=0;orthogonalLoop=1;jettySize=auto;html=1;entryX=0;entryY=0.5;entryDx=0;entryDy=0;" edge="1" parent="g-JHbJqc6vK05-hs5_N7-5" source="g-JHbJqc6vK05-hs5_N7-48" target="g-JHbJqc6vK05-hs5_N7-55">
          <mxGeometry relative="1" as="geometry" />
        </mxCell>
        <mxCell id="g-JHbJqc6vK05-hs5_N7-48" value="Get data" style="rounded=0;whiteSpace=wrap;html=1;" vertex="1" parent="g-JHbJqc6vK05-hs5_N7-5">
          <mxGeometry x="730" y="25" width="120" height="70" as="geometry" />
        </mxCell>
        <mxCell id="g-JHbJqc6vK05-hs5_N7-53" value="Database Magenta" style="shape=datastore;whiteSpace=wrap;html=1;" vertex="1" parent="g-JHbJqc6vK05-hs5_N7-5">
          <mxGeometry x="760" y="120" width="60" height="60" as="geometry" />
        </mxCell>
        <mxCell id="g-JHbJqc6vK05-hs5_N7-55" value="Kirim respon ke Channel" style="rounded=0;whiteSpace=wrap;html=1;" vertex="1" parent="g-JHbJqc6vK05-hs5_N7-5">
          <mxGeometry x="870" y="25" width="120" height="70" as="geometry" />
        </mxCell>
        <mxCell id="g-JHbJqc6vK05-hs5_N7-65" value="Y" style="edgeLabel;html=1;align=center;verticalAlign=middle;resizable=0;points=[];" vertex="1" connectable="0" parent="1">
          <mxGeometry x="640" y="1240" as="geometry" />
        </mxCell>
      </root>
    </mxGraphModel>
  </diagram>
</mxfile>
